<?xml version="1.0" encoding="UTF-8" standalone="no"?><!DOCTYPE svg PUBLIC "-//W3C//DTD SVG 1.1//EN" "http://www.w3.org/Graphics/SVG/1.1/DTD/svg11.dtd">
<svg width="100%" height="100%" viewBox="0 0 45 45" version="1.1" xmlns="http://www.w3.org/2000/svg"
     xml:space="preserve"
     style="fill-rule:evenodd;clip-rule:evenodd;stroke-linecap:round;stroke-linejoin:round;stroke-miterlimit:1.5;"><g><g><path d="M16.517,6.106c-0.749,-0.198 -2.246,-0.594 -3.294,-0.768c-0.989,-0.164 -2.174,-0.85 -2.995,-0.275c-1.226,0.86 -3.045,3.556 -4.36,5.432c-1.304,1.859 -3.57,4.09 -3.533,5.824c0.038,1.735 2.522,3.372 3.757,4.583c1.078,1.058 2.404,1.972 3.653,2.682c1.203,0.684 2.503,1.224 3.84,1.578c2.119,0.561 7.394,1.492 8.872,1.79c1.454,-0.298 6.629,-1.229 8.722,-1.79c1.337,-0.358 2.638,-0.894 3.841,-1.578c1.249,-0.71 2.575,-1.624 3.653,-2.682c1.235,-1.211 3.719,-2.848 3.756,-4.583c0.038,-1.734 -2.229,-3.965 -3.532,-5.824c-1.315,-1.876 -3.134,-4.572 -4.36,-5.432c-0.821,-0.575 -2.006,0.111 -2.995,0.275c-1.049,0.174 -2.546,0.57 -3.294,0.768" style="stroke:#000;stroke-width:1.5px;"/><path d="M19.095,22.753c0.125,0.883 0.27,3.056 0.279,3.149" style="stroke:#000;stroke-width:1.5px;"/><path d="M19.374,25.902c0.149,1.621 0.651,8.645 0.802,10.745c0.044,0.618 0.279,1.305 0.102,1.857c-0.176,0.551 -1.496,1.142 -1.162,1.452c0.333,0.31 2.637,0.339 3.164,0.407c-0.012,-0.011 2.862,-0.095 3.369,-0.407c0.437,-0.269 -0.986,-0.901 -1.163,-1.452c-0.176,-0.552 0.058,-1.239 0.103,-1.857c0.15,-2.1 0.653,-9.124 0.802,-10.745" style="stroke:#000;stroke-width:1.5px;"/><path d="M25.391,25.902c0.009,-0.093 0.154,-2.266 0.279,-3.149" style="stroke:#000;stroke-width:1.5px;"/><path d="M28.417,19.598c0.418,-0.34 1.255,-1.019 1.524,-1.742c0.345,-0.926 0.435,-3 0.545,-3.812c0.164,-1.207 1.473,-3.104 0.784,-4.439c-0.715,-1.386 -3.569,-3.171 -5.074,-3.872c-1.199,-0.559 -3.343,-0.281 -4.018,-0.349l-0.031,0.003c-0.612,0.056 -2.501,-0.179 -3.579,0.346c-1.442,0.703 -4.358,2.486 -5.073,3.872c-0.689,1.335 0.62,3.232 0.784,4.439c0.11,0.812 0.178,2.904 0.544,3.812c0.29,0.719 1.199,1.332 1.653,1.638" style="fill:none;stroke:#fff;stroke-width:1.5px;"/><path d="M26.262,18.037c1.209,1.844 3.627,5.533 4.576,7.599c0.677,1.475 1.145,3.314 1.116,4.8c-0.029,1.45 -0.8,3.22 -1.29,4.115c-0.344,0.629 -1.451,1.446 -1.651,1.256c-0.199,-0.19 0.366,-1.585 0.455,-2.394c0.112,-1.035 0.357,-2.725 0.222,-3.816c-0.122,-0.976 -0.551,-1.901 -1.038,-2.73c-0.536,-0.913 -1.956,-2.045 -2.18,-2.745c-0.174,-0.542 0.404,-1.148 0.834,-1.459c0.429,-0.311 1.181,-0.436 1.248,-0.44" style="fill:#fff;stroke:#000;stroke-width:1.5px;"/><g><path d="M18.503,18.037c-1.21,1.844 -3.628,5.533 -4.576,7.599c-0.677,1.475 -1.145,3.314 -1.116,4.8c0.028,1.45 0.8,3.22 1.29,4.115c0.344,0.629 1.451,1.446 1.65,1.256c0.2,-0.19 -0.366,-1.585 -0.454,-2.394c-0.113,-1.035 -0.358,-2.725 -0.222,-3.816c0.122,-0.976 0.55,-1.901 1.038,-2.73c0.536,-0.913 1.956,-2.045 2.18,-2.745c0.174,-0.542 -0.405,-1.148 -0.834,-1.459c-0.429,-0.311 -1.181,-0.436 -1.248,-0.44" style="fill:#fff;stroke:#000;stroke-width:1.5px;"/></g><ellipse cx="26.828" cy="15.031" rx="0.678" ry="0.699" style="fill:#fff;stroke:#fff;stroke-width:1.5px;"/><ellipse cx="17.937" cy="15.031" rx="0.678" ry="0.699" style="fill:#fff;stroke:#fff;stroke-width:1.5px;"/></g></g></svg>