<?xml version="1.0" encoding="UTF-8" standalone="no"?>
<!-- Created with Inkscape (http://www.inkscape.org/) -->

<svg
   width="270mm"
   height="270mm"
   viewBox="0 0 270 270"
   version="1.1"
   id="svg1"
   xml:space="preserve"
   xmlns="http://www.w3.org/2000/svg"
   xmlns:svg="http://www.w3.org/2000/svg"><defs
     id="defs1" /><g
     id="layer1"><g
       id="g7"
       style="display:inline"><path
         style="display:inline;fill:none;fill-opacity:1;stroke:none;stroke-width:0.264583;stroke-dasharray:0.264583, 3.175"
         d="M 270.03259,-270.67443 H 540.03258 V -0.67444 H 270.03259 Z"
         id="path15"
         transform="translate(-0.03259276,270.67444)" /><path
         style="display:inline;fill:#ffffff;fill-opacity:1;stroke:#e6e6e6;stroke-width:0.264583;stroke-dasharray:0.264583, 3.175"
         d="m 380.99997,59.266663 -33.86667,-12.7 h -12.7 l -8.46666,12.7 -8.46667,16.933333 4.23333,25.399994 12.7,38.1 25.4,12.7 16.93334,4.23333 -4.23334,12.7 -8.46666,16.93334 16.93333,-4.23334 12.7,-8.46666 4.23333,46.56666 25.4,12.7 4.23333,-8.46667 -12.7,-16.93333 4.23334,-33.86666 h 4.23333 l 21.16667,12.7 4.23333,-4.23334 -16.93333,-25.4 42.33333,-12.69999 16.93333,-46.56667 4.23334,-21.166664 -4.23334,-12.699999 -12.7,-16.933334 h -8.46666 l -21.16667,4.233334 -16.93333,8.466666 -16.93334,-8.466666 h -12.69999 -8.46667 z"
         id="path6" /><path
         id="path7"
         style="fill:#000000;stroke-width:1.07718"
         d="m 341.83625,41.058885 c -7.18139,0.0267 -14.01421,4.190567 -17.76638,10.239857 -3.07464,4.632574 -5.67812,9.554004 -8.42122,14.384449 -2.03979,3.784241 -4.27123,7.740155 -4.32837,12.159534 -0.1629,5.474708 1.77789,10.692829 3.2477,15.883781 1.0215,3.282983 1.9734,6.597794 3.21887,9.802744 0.48695,1.34025 1.9642,1.87729 3.24418,2.14175 1.45887,0.29336 2.95029,-0.36022 3.84903,-1.51793 0.99544,-1.05257 1.52697,-2.62147 0.95589,-4.01662 -1.54646,-6.544506 -3.99575,-12.857337 -5.26351,-19.470281 -0.37181,-2.000061 -0.25779,-4.146769 0.59745,-5.96211 1.14514,-2.635794 2.61264,-5.147071 4.36629,-7.42377 1.8168,-2.313908 4.42476,-4.321757 7.49146,-4.337603 1.65663,-0.06435 3.32806,-0.03363 4.97773,0.01633 1.72126,0.454266 3.34686,1.213769 5.04624,1.745912 8.30983,2.973983 16.61966,5.947965 24.92951,8.921948 -0.98897,3.967491 -0.79154,8.093989 -1.0061,12.146755 -0.0721,2.555847 -0.14418,5.111694 -0.21627,7.667542 -2.30691,3.155675 -4.48327,6.706457 -4.62128,10.728117 -0.36556,4.33603 0.25229,8.99143 2.89875,12.57391 1.68828,2.19388 2.40212,4.90844 3.17865,7.51703 2.2437,7.51139 4.10263,15.14415 6.72796,22.53731 0.45469,1.52015 1.28787,2.87229 1.98607,4.2835 0.17075,0.99127 -0.88469,0.23815 -1.41857,0.21821 -9.89062,-2.51311 -19.70658,-5.31378 -29.50841,-8.14982 -1.92556,-0.60073 -4.0015,-1.03261 -5.52687,-2.45101 -2.06952,-1.66727 -3.60689,-3.97672 -4.2613,-6.55918 -2.40259,-7.1951 -4.16276,-14.60001 -6.85805,-21.69507 -0.51102,-1.48357 -1.86243,-2.63223 -3.45183,-2.72828 -2.10676,-0.26082 -4.08672,1.21155 -4.89007,3.08906 -0.60496,1.34686 0.21269,2.71144 0.47989,4.02717 2.07427,7.53725 4.49413,14.97522 6.97912,22.38606 0.71431,2.17554 1.90593,4.16715 3.47533,5.83391 2.46197,2.80004 5.5808,5.13961 9.21129,6.14983 10.53852,3.24845 21.2532,5.88665 31.84363,8.95944 -2.16153,3.89266 -4.89024,7.45725 -7.49701,11.02151 -2.33559,3.12101 -4.93445,6.04473 -7.15576,9.24811 -1.15506,1.71749 -1.63374,3.9492 -0.86744,5.92212 0.87696,2.62995 3.33399,4.9276 6.21766,4.90004 3.41036,0.12443 6.68441,-1.0915 9.83701,-2.24877 5.25417,-2.05152 10.05165,-5.18901 14.14687,-9.05926 0.48443,-0.39261 0.24827,1.09781 0.42423,1.51127 1.4116,12.01547 2.67028,24.0521 4.35108,36.03348 0.5668,3.38623 2.07797,6.75701 4.86925,8.8797 3.02214,2.41985 6.56705,4.055 9.93361,5.92734 4.8524,2.57692 9.72177,5.16077 14.80286,7.2584 2.2953,0.58733 4.60984,-0.81059 6.04956,-2.51079 0.9171,-1.12126 1.37489,-2.55435 1.46446,-3.97911 0.93402,-2.23308 3.57617,-3.19725 4.38964,-5.52229 0.99418,-2.29853 0.28173,-5.17538 -1.70176,-6.71796 -3.05982,-2.91751 -6.6419,-5.20229 -9.89893,-7.88387 -1.71972,-1.28779 -3.60297,-2.75991 -4.04304,-4.99426 -0.65144,-2.66248 0.16112,-5.36672 0.34223,-8.03496 0.84094,-7.41538 1.76762,-14.81473 2.77931,-22.19807 3.99733,4.29146 8.75219,7.9263 14.13743,10.29564 3.90939,1.81767 8.12362,3.36391 12.49553,3.25123 2.86568,-0.24267 5.17795,-2.68 5.87822,-5.37541 0.53804,-1.96547 0.0666,-4.11512 -1.18441,-5.71443 -1.43301,-2.17912 -3.09876,-4.26289 -5.14405,-5.89055 -2.80822,-1.67952 -6.97545,0.85519 -6.64823,4.14674 0.0701,0.87388 0.45464,1.68888 0.93622,2.40893 -5.11851,-1.91119 -9.78162,-5.01761 -13.45072,-9.07294 -2.00074,-2.19412 -3.81312,-4.61644 -5.09068,-7.29987 -0.26943,-1.21266 0.19003,-2.57089 1.30224,-3.19953 0.93518,-0.73068 1.91098,-1.40563 2.80236,-2.19434 1.92097,3.77194 3.67467,7.72417 6.49257,10.93594 1.3482,1.44052 3.64376,2.01192 5.40327,0.98891 2.01378,-0.9868 2.89459,-3.65299 1.90138,-5.6595 -0.73958,-1.87724 -2.17735,-3.36255 -3.02958,-5.17976 10.65856,-3.05872 21.44236,-5.67745 32.0187,-9.0337 4.67722,-1.23554 8.43018,-4.71567 11.04763,-8.6662 1.79468,-2.9964 2.48454,-6.45802 3.64072,-9.71253 4.40373,-13.91519 8.47328,-27.93736 12.59391,-41.940998 0.92947,-3.438735 2.07256,-6.854175 2.47145,-10.406731 0.34328,-3.911477 -0.71928,-7.834844 -2.59709,-11.250511 -2.70857,-5.478299 -5.86969,-10.714403 -8.95946,-15.980958 -2.31861,-3.862263 -5.34554,-7.449533 -9.38043,-9.585855 -5.13084,-2.820132 -11.49339,-3.301065 -16.96652,-1.190581 -10.65937,3.4325 -21.12873,7.471332 -31.7332,11.034271 -2.59276,-1.817502 -5.17975,-3.68163 -8.09726,-4.953402 -5.29333,-2.551884 -11.16975,-4.032069 -17.06971,-3.761963 -3.9645,-0.03254 -7.95922,0.472959 -11.68946,1.860232 -4.59559,1.54751 -8.92559,3.889489 -12.70876,6.924561 -4.20726,-1.567896 -8.47545,-3.002702 -12.69867,-4.540601 -6.68947,-2.372491 -13.35947,-4.808397 -20.12537,-6.95346 -2.00124,-0.572237 -4.06848,-0.983884 -6.15867,-0.937739 z m 127.51798,9.242325 c 1.82071,-0.03428 3.70557,0.207602 5.26979,1.20624 1.14796,0.585782 2.19151,1.363998 3.11837,2.256737 -2.19142,0.06995 -4.41557,-0.101597 -6.58549,0.166952 -10.44476,3.746949 -20.8587,7.580434 -31.34948,11.196079 -0.89296,-1.45683 -1.79017,-2.913629 -2.76451,-4.317151 9.41185,-3.313146 18.74675,-6.8257 28.22603,-9.913959 1.37045,-0.392776 2.69031,-0.625675 4.08529,-0.594898 z m -125.96532,0.03576 c 1.2242,-0.05323 2.4398,0.102748 3.55645,0.628607 9.04356,3.255547 18.08712,6.511093 27.13068,9.76664 -0.91277,1.452243 -1.73038,2.969143 -2.72873,4.365541 -10.56497,-3.658736 -21.05939,-7.518288 -31.58127,-11.299914 -2.06599,-0.01118 -4.13245,0.0047 -6.19802,-0.04207 1.70641,-1.601779 3.75418,-2.88551 6.02549,-3.330435 1.26037,-0.147619 2.53044,-0.04503 3.7954,-0.08837 z m 62.88903,3.473497 c 4.68268,-0.08788 9.31896,1.216033 13.39484,3.489458 7.08247,3.885229 12.49864,10.777318 14.64983,18.504456 1.01716,3.625055 0.9565,7.397442 1.13677,11.109004 0.11197,3.280484 0.16723,6.562555 0.2644,9.843489 2.01054,2.760042 4.44681,5.631976 4.52686,9.223756 0.15066,2.76491 -1.04011,5.42587 -2.75739,7.53429 -1.831,2.83732 -2.44932,6.21892 -3.49467,9.38083 -2.17701,7.23011 -3.90572,14.61539 -6.64864,21.66167 -1.74975,3.78693 -4.64162,6.8916 -7.97086,9.30171 -1.96321,1.28604 -3.68424,3.14945 -4.17781,5.50746 -1.2746,4.47281 -1.63277,9.13482 -2.31923,13.71845 -1.42233,10.79051 -2.89975,21.57943 -3.94208,32.41392 -0.14659,3.91438 1.1991,7.8995 3.72745,10.89158 3.15944,3.30096 6.97529,5.8667 10.57217,8.65546 0.79424,0.27233 0.16535,0.69666 -0.14718,1.10732 -0.75746,0.97623 -1.42279,2.03191 -1.90219,3.17295 -6.07309,-3.0685 -12.0958,-6.2356 -17.90609,-9.75147 -1.26687,-0.96562 -1.7794,-2.57866 -1.84326,-4.11487 -2.50732,-17.79136 -4.20747,-35.71834 -6.5738,-53.54194 -0.26237,-1.4653 -0.31514,-2.98838 -0.75792,-4.40962 -0.98977,-2.18004 -2.8916,-3.74367 -4.48078,-5.47407 -2.18141,-2.19875 -4.41147,-4.4479 -5.57864,-7.34664 -2.2212,-5.18372 -3.52348,-10.68762 -5.10226,-16.08066 -1.28528,-4.34964 -2.39226,-8.76768 -4.02313,-13.00526 -0.80501,-2.12463 -2.61345,-3.6833 -3.30084,-5.86795 -1.05698,-2.63722 -0.68766,-5.66944 0.6874,-8.11907 0.90859,-1.731018 2.12083,-3.273557 3.261,-4.853639 0.26615,-6.42111 0.0563,-12.892654 0.90113,-19.220067 1.41933,-7.61959 6.22725,-14.486085 12.69598,-18.78236 4.28818,-2.869694 9.30856,-4.749474 14.49965,-4.883607 0.86887,-0.04819 1.73921,-0.0622 2.60929,-0.06458 z m 70.31573,9.101366 c 1.77397,-0.01277 3.54632,0.110774 5.2113,0.898354 3.20794,1.763176 5.24091,4.990331 6.94833,8.119134 1.38978,2.471166 2.77077,5.357109 1.9625,8.25175 -1.17916,6.182573 -3.18847,12.145005 -4.90876,18.206263 -3.73486,12.636696 -7.46465,25.261096 -11.42988,37.827506 -0.9954,2.32094 -2.88254,4.10522 -4.9809,5.51538 -2.31791,1.13526 -4.88355,1.59866 -7.32224,2.40192 -9.17593,2.65982 -18.40675,5.0604 -27.6357,7.52957 -0.29762,-1.05577 0.66326,-1.81081 0.98664,-2.72922 1.9316,-4.00821 2.89885,-8.38142 4.22629,-12.60686 1.70071,-5.82068 3.12831,-11.67327 5.19915,-17.35184 0.96095,-1.83342 2.4986,-3.33884 3.12794,-5.35046 1.50439,-3.92938 1.66752,-8.32855 0.71633,-12.40743 -0.80952,-2.962509 -2.53386,-5.553997 -4.26504,-8.050341 -0.18448,-1.353738 -0.004,-2.733355 -0.0832,-4.097503 0.0298,-5.07458 0.14443,-10.218669 -1.09806,-15.179843 0.14146,-0.503115 1.18431,-0.502791 1.68411,-0.805777 9.4425,-3.404781 18.89102,-6.791775 28.34137,-10.174812 1.10663,0.0014 2.21327,0.0028 3.31992,0.0042 z m -92.20865,34.619271 c -2.24769,0.175151 -3.97429,2.347974 -4.0153,4.538426 -0.18118,2.09807 -0.0174,4.20965 -0.045,6.31252 0.0148,1.71951 0.75575,3.60605 2.45504,4.28854 2.39708,1.1595 5.64961,-0.19912 6.33731,-2.81743 0.6014,-2.06031 0.14273,-4.22922 0.19238,-6.33639 -0.0678,-1.76492 -0.17894,-3.892006 -1.70131,-5.062065 -0.93034,-0.661794 -2.10393,-0.883608 -3.22314,-0.923601 z m 42.2921,-0.0042 c -1.87943,0.02526 -4.05994,1.09455 -4.3404,3.135596 -0.51555,2.71146 -0.45633,5.49664 -0.38852,8.24148 0.24774,2.39104 2.49604,4.4341 4.94039,4.18258 2.07094,-0.10405 4.04578,-1.85198 3.99099,-4.00508 0.2286,-2.58447 0.17747,-5.19701 -0.003,-7.78023 -0.37469,-1.925596 -2.13827,-3.822323 -4.19933,-3.774346 z m -21.93921,11.912136 c -3.43469,0.21662 -7.20448,0.85326 -9.69045,3.45247 -1.61987,1.88231 -1.20191,4.99881 0.76179,6.47532 1.39248,1.12665 3.42595,1.17191 4.95234,0.28864 1.19504,-0.57966 2.4645,-1.14233 3.82375,-1.00999 2.00892,-0.10328 4.17295,-0.11643 5.92231,1.02697 1.53198,0.82009 3.5686,0.80536 4.91585,-0.32415 1.88206,-1.2976 2.55857,-4.16433 1.08981,-6.01918 -1.66392,-2.34137 -4.63424,-3.16143 -7.31828,-3.64884 -1.47153,-0.23625 -2.96903,-0.28787 -4.45712,-0.24124 z m 0.0148,16.31346 c -4.61205,0.24732 -9.45053,1.10581 -13.20602,3.97422 -2.17709,2.03693 -1.61388,6.3028 1.22656,7.43929 1.91473,0.74977 4.08106,0.1745 5.71349,-0.95791 3.48252,-1.53851 7.45482,-1.65885 11.16091,-1.02045 1.91288,0.37611 3.62393,1.35165 5.3919,2.10723 2.1505,0.66758 4.93917,-0.16657 5.74625,-2.42963 1.00371,-2.13865 -0.2254,-4.75245 -2.21294,-5.83123 -2.90382,-1.91045 -6.38204,-2.72391 -9.7876,-3.16235 -1.33958,-0.13022 -2.68737,-0.15148 -4.03255,-0.11917 z m 0.19356,16.2398 c -3.45905,0.1653 -7.19036,0.85608 -9.78933,3.31992 -1.83366,2.10293 -1.28329,6.00535 1.40411,7.12032 2.24807,0.87177 4.53419,-0.32625 6.62248,-1.08511 2.38897,-0.96537 4.9187,0.0368 7.19284,0.83814 1.83044,0.61273 4.16444,0.8141 5.63205,-0.69095 2.1401,-2.11542 1.33303,-6.22208 -1.43008,-7.40072 -2.89388,-1.69195 -6.32936,-2.16147 -9.63207,-2.1016 z m 0.31558,16.24403 c -2.52541,0.13052 -5.38913,0.7899 -6.86284,3.04641 -1.45217,2.40108 -0.0505,6.14271 2.82761,6.59564 2.12958,0.0912 4.07287,-0.58539 6.17128,-0.17074 1.6699,0.26073 3.71224,0.38172 4.91265,-1.05459 1.95836,-2.01716 1.37354,-5.79993 -1.17047,-7.05972 -1.76784,-1.00724 -3.86205,-1.37821 -5.87823,-1.357 z m -21.37537,0.96779 c 1.16941,0.76475 2.08323,2.02578 2.07742,3.46557 0.21791,1.59619 0.29198,3.20713 0.4325,4.81106 -2.73943,3.58108 -5.7192,6.99673 -9.49689,9.48218 -2.22569,1.51683 -4.74155,2.82813 -7.30466,3.79749 5.43749,-6.70761 10.49175,-13.80485 14.23061,-21.61522 z" /></g><g
       id="g10"><path
         style="fill:none;fill-opacity:1;stroke:none;stroke-width:0.264583;stroke-dasharray:0.264583, 3.175"
         d="M 0,0 H 269.99999 V 269.99999 H 0 Z"
         id="path13" /><path
         style="fill:#ffffff;fill-opacity:1;stroke:#e6e6e6;stroke-width:0.264583;stroke-dasharray:0.264583, 3.175"
         d="M 237.06665,88.899994 V 76.199996 l -12.7,-16.933333 -25.39999,-12.7 h -16.93334 l -21.16666,8.466667 -16.93333,16.933333 -8.46667,29.633327 -21.16667,21.16667 -29.633327,16.93333 -33.866666,46.56667 -16.933333,29.63333 c 0,0 22.140707,9.89607 33.866666,12.7 12.427789,2.97175 38.1,4.23333 38.1,4.23333 h 80.43333 l 21.16666,-29.63333 8.46667,-33.86667 v -33.86666 l -8.46667,-25.4 8.46667,-21.166666 z"
         id="path10" /><path
         id="path4"
         style="fill:#000000;stroke-width:1.08675"
         d="m 184.75437,41.078634 c -3.59025,0.09506 -7.16315,0.735722 -10.53164,1.993182 -13.26058,4.414744 -24.34884,14.320817 -31.09182,26.467246 -3.66357,6.498109 -6.09258,13.597202 -8.06335,20.766515 -1.3457,4.483612 -2.36705,9.191082 -5.00786,13.137983 -2.86787,4.4922 -6.76428,8.26626 -11.01798,11.50727 -3.03138,2.30408 -6.44816,4.07551 -10.07481,5.23258 -4.79662,1.6983 -9.385971,3.96029 -13.63684,6.75776 -11.15577,7.19803 -20.429884,16.90065 -28.82456,27.09685 -12.004423,14.67476 -22.066608,30.82706 -31.212057,47.40075 -2.405615,4.44779 -4.85193,8.88765 -6.864671,13.52977 -0.618609,1.48218 -0.735178,3.28644 0.254709,4.63994 1.268645,2.04668 4.305452,3.14694 6.365378,1.61144 1.966684,-1.47385 2.854446,-3.8701 4.08818,-5.9095 3.416664,-6.33453 6.665357,-12.76417 10.36925,-18.94045 7.778894,-13.29843 16.387617,-26.09075 26.241361,-37.91234 7.417796,-8.76987 15.521617,-17.05638 25.15517,-23.38324 4.85969,-3.11788 10.30375,-5.66095 15.94609,-6.68359 4.0434,-0.63104 8.2971,-0.64864 12.2409,0.0955 5.3196,1.31064 10.03394,4.20918 14.20023,7.70192 4.10978,3.47638 7.44151,8.08612 8.60409,13.36762 1.53394,6.64955 0.17274,13.5291 -2.10962,19.85278 -3.90076,10.3656 -10.26985,19.53678 -17.22072,28.09371 -8.57929,10.52024 -18.32456,20.0282 -28.48287,29.00809 -1.47946,1.36573 -3.152,3.11698 -2.9327,5.29862 0.2296,2.63073 2.94978,4.92203 5.60148,4.18784 2.84204,-0.6734 4.79848,-3.02222 6.94555,-4.82256 13.07605,-11.77494 25.45292,-24.52931 35.29028,-39.18144 5.12839,-7.74768 9.61001,-16.07255 11.99748,-25.09937 2.01112,-7.62114 2.31288,-15.91842 -0.49647,-23.38354 -1.56852,-4.35304 -4.16082,-8.29022 -7.37997,-11.59946 -1.52332,-1.65775 -3.14335,-3.2333 -4.90085,-4.64257 6.9461,-4.82161 15.20965,-7.24653 23.503,-8.314 3.22299,-0.44405 6.55551,-0.39829 9.75777,-1.14208 2.26524,-0.50773 4.19783,-2.14473 5.06288,-4.29975 1.11892,-2.69331 1.46045,-5.64214 2.64695,-8.31683 3.18663,-7.745095 9.02463,-14.145517 15.69581,-19.081964 0.63283,-0.450789 1.26884,-0.897842 1.92517,-1.313874 1.08116,1.238082 2.33265,2.320345 3.66994,3.273012 -4.07387,5.210869 -6.68339,11.627746 -6.98042,18.266176 -0.3522,5.72969 0.83344,11.40757 2.32117,16.90748 2.08228,8.37996 3.50755,16.92265 3.60883,25.55168 0.21522,7.27584 0.20513,14.56379 -0.12495,21.83506 -0.62185,7.77078 -2.23996,15.50111 -4.34776,23.0253 -3.24442,11.13961 -8.42121,21.95612 -16.50284,30.41027 -2.2151,2.36687 -4.6008,4.40328 -7.00874,6.51589 -1.37838,1.23521 -2.7374,2.9924 -2.28158,4.96412 0.47682,2.72604 3.56272,4.93839 6.26566,3.87429 4.83202,-2.74548 8.85149,-6.70602 12.44243,-10.89989 6.51326,-7.77345 11.30102,-16.88465 14.7481,-26.39103 4.38404,-12.20544 6.593,-25.14566 6.84145,-38.10106 0.17368,-7.76979 0.0615,-15.55762 -0.59939,-23.30344 -0.77221,-8.38795 -2.42375,-16.67378 -4.62684,-24.79683 -1.1063,-4.44089 -1.50948,-9.2106 -0.0528,-13.62367 1.17535,-3.937684 3.2983,-7.616287 6.28656,-10.392488 2.3712,0.120727 4.76773,0.159971 7.10426,0.341742 -1.1698,1.561487 -2.48031,3.456349 -1.91243,5.514453 0.65072,2.701573 3.95902,4.625333 6.54178,3.313333 2.42406,-1.260869 3.90441,-3.684591 5.4168,-5.858305 3.35687,-5.286305 5.26719,-11.824266 3.886,-18.056685 -1.41608,-6.700851 -5.59424,-12.586787 -10.91156,-16.800089 -2.5062,-2.021569 -4.94267,-4.127893 -7.38618,-6.224056 -7.15196,-5.860779 -15.46681,-10.529146 -24.53837,-12.56942 -4.22919,-0.772571 -8.55016,-0.415596 -12.82366,-0.51642 -0.35946,0.0066 -0.7189,0.01317 -1.07836,0.01976 z m 3.80365,9.581307 c 7.29462,-0.117467 14.53379,2.002319 20.79311,5.705474 0.93,0.527033 1.84151,1.087757 2.72079,1.695948 -2.97471,3.211007 -3.3781,8.335695 -1.47307,12.132644 -2.37293,-0.0043 -4.83349,-0.380295 -7.12337,0.433005 2.24028,-4.283024 1.01132,-9.883378 -2.53073,-13.085076 -3.52064,-3.388129 -9.43359,-3.834176 -13.41184,-0.988989 -3.2232,2.153282 -5.27928,6.048046 -4.89486,9.950048 0.20063,4.066215 2.80644,8.001264 6.66867,9.446233 3.86841,1.659856 8.59137,0.736544 11.6896,-2.066185 -0.15796,0.868608 -0.0879,1.772716 0.16343,2.617137 -2.90281,2.254817 -5.98573,4.302239 -8.57154,6.936342 -7.12048,6.765206 -12.56241,15.461594 -14.84683,25.063608 -5.26608,0.32704 -10.54756,0.81508 -15.66865,2.1442 -8.29353,2.01403 -16.26254,5.63244 -22.94312,10.97969 -2.88635,-1.33588 -5.9452,-2.30808 -9.05491,-2.9801 4.43494,-4.37868 8.76163,-9.13811 11.07193,-15.02256 3.19069,-7.551046 4.28826,-15.795521 7.72597,-23.23605 3.3852,-7.676869 8.11265,-15.030464 14.70268,-20.405076 7.02104,-5.695629 15.89296,-9.244053 24.98274,-9.320293 z m 5.23428,14.013247 c 0.79063,0.275589 1.25893,1.592513 0.34857,2.021198 -0.74414,0.765079 -1.84762,-0.231167 -1.58816,-1.106369 0.0867,-0.558173 0.68823,-1.013628 1.23959,-0.914829 z m 25.84872,0.07641 c 0.64109,0.05632 0.29263,1.381876 -0.22924,0.793844 -0.20988,-0.242592 -0.16727,-0.795291 0.22924,-0.793844 z m 8.48818,6.955681 c 1.73331,2.127521 3.09395,4.698521 3.63811,7.325009 -2.04074,-1.96765 -4.37907,-3.628778 -6.92174,-4.884048 1.19208,-0.675736 2.24351,-1.596268 3.07561,-2.685058 0.0694,0.08137 0.13869,0.162731 0.20802,0.244097 z M 91.33132,147.82934 c -2.827296,0.29709 -4.905986,2.55515 -6.483842,4.72314 -1.07898,1.74267 -0.930124,4.22682 0.572464,5.68385 -1.831043,-1.46889 -4.626668,-1.21533 -6.306517,0.36915 -2.048517,1.88614 -3.624359,4.21496 -5.382562,6.36088 -5.929679,7.6262 -11.506009,15.52769 -16.73534,23.64876 -0.91318,1.54342 -2.012914,3.10611 -2.255291,4.91751 -0.111869,2.57967 2.254164,4.79994 4.782395,4.81623 1.896673,0.18025 3.77573,-0.94371 4.570862,-2.66369 5.066546,-7.41254 9.897239,-15.00115 15.4672,-22.05554 2.444629,-3.21591 5.104686,-6.29303 7.211063,-9.74787 0.840324,-1.49206 0.677844,-3.42793 -0.428489,-4.73909 -0.426699,-0.46375 0.497936,0.31785 0.706034,0.32506 1.504298,0.75781 3.401449,0.56879 4.695687,-0.52319 2.023751,-1.32744 3.982373,-3.25017 4.364249,-5.74083 0.217993,-2.68059 -1.950525,-5.52155 -4.777913,-5.37437 z" /></g><g
       id="g12"
       transform="translate(0,271.22488)"><path
         style="fill:none;fill-opacity:1;stroke:none;stroke-width:0.264583;stroke-dasharray:0.264583, 3.175"
         d="M 0,269.99999 H 269.99999 V 540.00013 H 0 Z"
         id="path14"
         transform="translate(0,-271.22487)" /><path
         style="fill:#000000;fill-opacity:1;stroke:#e6e6e6;stroke-width:0.264583;stroke-dasharray:0.264583, 3.175"
         d="M 237.06665,88.899994 V 76.199996 l -12.7,-16.933333 -25.39999,-12.7 h -16.93334 l -21.16666,8.466667 -16.93333,16.933333 -8.46667,29.633327 -21.16667,21.16667 -29.633327,16.93333 -33.866666,46.56667 -16.933333,29.63333 c 0,0 22.140707,9.89607 33.866666,12.7 12.427789,2.97175 38.1,4.23333 38.1,4.23333 h 80.43333 l 21.16666,-29.63333 8.46667,-33.86667 v -33.86666 l -8.46667,-25.4 8.46667,-21.166666 z"
         id="path11" /><path
         id="path12"
         style="fill:#ffffff;fill-opacity:1;stroke-width:1.08675"
         d="m 190.20312,42.121094 c -3.30685,0.06652 -6.59119,-0.166976 -9.81338,0.429127 -4.18383,0.693733 -8.18892,2.249639 -11.97727,4.045209 -11.68202,5.714555 -20.99577,15.772837 -26.44551,27.520514 -2.87992,6.033804 -4.79466,12.46 -6.57642,18.885158 -1.21294,4.328632 -2.595,8.734608 -5.3545,12.359828 -3.55951,4.99481 -8.20515,9.1741 -13.35487,12.47651 -2.87708,1.78304 -6.07561,2.92522 -9.24823,4.05204 -9.696061,3.76191 -18.150739,10.11398 -25.688396,17.17693 -8.734093,8.2611 -16.341417,17.63504 -23.385819,27.35441 -9.653859,13.44844 -18.062111,27.71698 -25.783875,42.35394 -1.248286,2.4739 -2.56027,4.94232 -3.477194,7.55922 -0.46965,1.82442 0.756849,3.73754 2.498291,4.31397 1.255665,0.51431 2.762042,0.11707 3.576474,-0.97296 1.620709,-1.82447 2.515022,-4.13901 3.752199,-6.21522 3.963446,-7.48658 7.936754,-14.97541 12.3863,-22.18599 8.427669,-13.88079 17.789073,-27.26965 28.731345,-39.30134 6.797134,-7.40651 14.296331,-14.3207 23.004405,-19.42609 5.81266,-3.33633 12.36639,-5.69195 19.13613,-5.66444 3.82312,-0.0995 7.71105,0.37379 11.23791,1.92252 4.90693,2.03151 9.31823,5.17701 13.05418,8.93185 3.82326,3.96717 6.48936,9.1508 6.96155,14.6817 0.74209,7.24869 -1.28024,14.47768 -4.18036,21.05853 -4.8882,10.98997 -12.26719,20.64253 -20.09799,29.68748 -7.67869,8.80331 -16.16799,16.85049 -24.87804,24.62033 -1.24792,1.15955 -2.54281,2.85295 -1.93044,4.65513 0.57606,1.90652 2.88561,3.24788 4.76713,2.33724 2.6325,-0.98854 4.42701,-3.27562 6.55013,-5.00691 12.85114,-11.64207 25.01658,-24.24043 34.65804,-38.7158 4.85981,-7.3471 9.04668,-15.20183 11.44285,-23.72683 2.11413,-7.62205 2.53595,-15.97432 -0.28052,-23.47701 -1.63763,-4.46941 -4.36621,-8.48215 -7.72785,-11.83429 -1.65283,-1.73301 -3.42573,-3.35023 -5.31798,-4.81858 7.25983,-5.33531 16.09112,-8.12695 24.95392,-9.26797 3.65576,-0.55959 7.46358,-0.31105 10.99725,-1.53477 2.06172,-0.89354 3.3068,-2.97814 3.78337,-5.09942 0.85052,-2.95574 1.5567,-5.98629 3.02247,-8.71638 3.73464,-7.57914 9.85029,-13.783058 16.76741,-18.519525 0.47776,-0.525229 5.86444,-3.212013 8.03417,-2.721945 2.16974,0.490068 0.54986,2.790783 -2.0332,6.516256 -3.84427,5.54449 -7.12442,11.789938 -7.42188,18.531254 -0.3654,5.8379 0.94205,11.57346 2.4375,17.22265 2.22584,8.94522 3.54834,18.139 3.54465,27.36892 0.13887,7.08177 0.17897,14.17907 -0.31976,21.2476 -0.89063,8.91819 -2.86579,17.71793 -5.67236,26.22383 -3.47159,10.13809 -8.73426,19.83559 -16.37834,27.43702 -2.22959,2.29844 -4.79814,4.24805 -7.02575,6.51755 -0.96491,1.08528 -1.36949,2.7474 -0.55439,4.03691 0.85184,1.67957 3.19462,2.89656 4.89939,1.71406 5.30111,-3.19365 9.5917,-7.74549 13.37622,-12.56201 5.95095,-7.74821 10.30986,-16.56712 13.43515,-25.78935 3.7953,-11.18545 5.75502,-23.04623 6.08134,-34.86109 0.25918,-12.0587 0.0412,-24.14741 -2.24092,-36.01034 -0.87289,-4.81246 -2.13787,-9.61924 -3.30871,-14.39598 -0.98059,-4.63899 -0.93001,-9.59649 0.83928,-14.04612 1.33138,-3.65948 3.49971,-7.03372 6.39451,-9.652482 3.16912,0.130995 6.33845,0.255647 9.50196,0.488281 -1.08913,1.661253 -2.72506,3.155181 -2.96485,5.224609 -0.21487,2.647821 3.19011,4.928622 5.47038,3.384235 1.94595,-1.205077 3.18588,-3.124122 4.41072,-4.956369 2.59651,-3.854162 4.25976,-8.470915 4.40601,-13.07435 0.13567,-5.454853 -2.14538,-10.830214 -5.45872,-15.136337 -2.01677,-2.696408 -4.58209,-4.90001 -7.21061,-6.975639 -4.13218,-3.450448 -8.06841,-7.076614 -12.6821,-9.889449 -5.47928,-3.441476 -11.49229,-6.186639 -17.87149,-7.411069 -2.465,-0.361844 -4.96449,-0.376796 -7.45091,-0.368756 z m 1.27763,43.917523 c -4.89117,5.094326 -8.83264,11.201429 -11.23256,17.794493 -0.67312,1.82598 -1.20592,3.73759 -1.66419,5.6708 -6.54405,0.37934 -13.06727,1.05457 -19.34962,3.0052 -6.13625,1.80972 -12.01608,4.55424 -17.23045,8.27214 -0.88594,0.63001 -1.82766,1.37883 -2.72852,2.06445 -3.58596,-1.70713 -7.42531,-2.80211 -11.30859,-3.58984 3.67626,-3.62458 7.43523,-7.40778 10.08789,-11.79883 2.00097,-3.31849 3.22308,-6.9829 4.36507,-10.640901 1.88666,-6.292637 3.34693,-12.784204 6.32991,-18.691234 3.90044,-8.279829 9.47286,-16.033071 17.15172,-21.183551 6.63795,-4.53162 14.58444,-7.267454 22.64939,-7.339782 h -2e-5 c 8.81856,0 17.62405,2.756644 24.67673,7.958171 6.78485,4.386592 11.33954,8.308106 16.411,14.37198 3.01919,4.071896 4.44511,10.238722 2.59196,8.953049 -1.58756,-1.457712 -3.15702,-2.962674 -4.98962,-4.121657 -1.45145,-0.992043 -3.01615,-2.144602 -4.62658,-3.048878 -11.09235,-5.995424 -23.5422,4.588981 -31.13352,12.32439 z M 202.1719,70.839844 c 1.62327,-2.332134 1.77111,-5.557833 0.81804,-8.259482 -1.16168,-3.534173 -4.3821,-6.369595 -8.12797,-6.754395 -3.45654,-0.515373 -7.04557,1.065413 -9.12114,3.850025 -1.77333,2.244593 -2.48846,5.256235 -1.88675,8.056379 0.65851,3.78237 3.72507,7.056465 7.53053,7.764677 3.50186,0.7683 7.6968,-0.217129 9.72283,-3.127907 z m -8.50198,-7.232422 c 1.83049,0.03439 2.80169,2.836933 1.21075,3.872355 -0.94468,0.984781 -2.66657,0.508036 -3.20504,-0.670605 -0.73409,-1.386105 0.41543,-3.263007 1.99429,-3.20175 z M 90.978516,148.95898 c -2.419078,0.56348 -4.180828,2.56679 -5.455078,4.58008 -0.625497,1.37384 -0.301161,3.11597 0.798828,4.15625 0.05229,0.48294 0.743134,0.35868 0.98847,0.72074 1.347997,0.81874 3.132078,0.44145 4.230212,-0.62369 1.754454,-1.2261 3.560383,-3.03242 3.502021,-5.32752 -0.17611,-1.94348 -1.973578,-3.97004 -4.064453,-3.50586 z m -8.72461,9.375 c -2.092574,0.13036 -3.397137,2.02195 -4.645471,3.47145 -6.749705,8.3564 -13.036672,17.09391 -18.872087,26.0918 -1.032767,1.73628 -2.376001,3.37445 -2.86916,5.36839 -0.416624,2.31444 1.99443,4.23631 4.174746,4.04042 1.454729,-0.0276 2.63311,-1.06481 3.26362,-2.31086 5.177426,-7.69509 10.253269,-15.4791 15.995215,-22.77313 2.33031,-3.04186 4.884951,-5.95391 6.759778,-9.31385 0.479923,-1.22829 -0.02277,-2.59228 -0.820902,-3.54719 -0.278466,-0.3474 -0.846101,-0.41333 -1.188864,-0.72624 -0.560617,-0.25408 -1.18581,-0.33839 -1.796875,-0.30079 z m 4.382813,1.14454 c -0.03281,0.51563 0.528532,-0.17971 0,0 z" /></g></g></svg>
