<?xml version="1.0" encoding="UTF-8" standalone="no"?>
<!-- Created with Inkscape (http://www.inkscape.org/) -->

<svg
   width="270mm"
   height="270.00015mm"
   viewBox="0 0 270 270.00015"
   version="1.1"
   id="svg1"
   xml:space="preserve"
   xmlns="http://www.w3.org/2000/svg"
   xmlns:svg="http://www.w3.org/2000/svg"><defs
     id="defs1" /><g
     id="layer1"
     transform="translate(0,-270)"><g
       id="g5"
       style="display:inline"
       transform="translate(-0.03259276,270.67443)"><path
         style="display:inline;fill:none;fill-opacity:1;stroke:none;stroke-width:0.264583;stroke-dasharray:0.264583, 3.175"
         d="M 269.99999,270.00006 H 539.99998 V 540.00005 H 269.99999 Z"
         id="path16"
         transform="translate(0.03259276,-270.67443)" /><path
         id="path5"
         style="display:inline;fill:#000000;fill-opacity:1;stroke:#e6e6e6;stroke-width:0.264583;stroke-dasharray:0.264583, 3.175"
         d="m 333.99414,46.273438 c -2.8547,4.317077 -5.77623,8.595836 -8.58945,12.936693 -2.81875,5.635556 -5.63543,11.27215 -8.45547,16.907057 1.44661,8.579622 2.83266,17.174345 4.31287,25.745262 4.24578,12.73732 8.49313,25.47412 12.73791,38.21177 8.57039,4.27475 17.12914,8.58184 25.70508,12.83984 5.45963,1.36459 10.91927,2.72917 16.3789,4.09375 -1.38617,4.09899 -2.70258,8.22689 -4.13241,12.30779 -2.95805,5.91487 -5.9141,11.83073 -8.87345,17.74495 6.04614,-1.51271 12.09316,-3.02202 18.13868,-4.53711 4.01172,-2.67448 8.02343,-5.34896 12.03515,-8.02344 1.39412,15.32485 2.78637,30.64987 4.18164,45.97461 8.71277,4.3557 17.4259,8.71072 26.13672,13.07031 1.53696,-3.07885 3.07701,-6.15616 4.61524,-9.23437 -4.25398,-5.6754 -8.51063,-11.34881 -12.76563,-17.02344 1.38216,-11.0638 2.76432,-22.1276 4.14649,-33.19141 1.23118,0.0355 2.50149,-0.0702 3.70879,0.0515 7.10217,4.26233 14.20522,8.52318 21.30683,12.78643 1.61248,-1.60952 3.22279,-3.22122 4.83203,-4.83398 -5.59607,-8.38559 -11.18429,-16.77645 -16.77734,-25.16406 13.96727,-4.19136 27.93598,-8.37793 41.90234,-12.57227 5.68302,-15.63042 11.37666,-31.2583 17.04688,-46.892577 1.42057,-7.101563 2.84115,-14.203123 4.26172,-21.304687 -1.46046,-4.324065 -2.85707,-8.680593 -4.35743,-12.984375 -4.28687,-5.714529 -8.5704,-11.431582 -12.85937,-17.144532 -2.97636,0.01989 -5.96048,-0.03958 -8.93204,0.02938 -7.0653,1.426872 -14.1488,2.803187 -21.20273,4.261635 -5.5651,2.782552 -11.1302,5.565104 -16.69531,8.347656 -5.60273,-2.801694 -11.20652,-5.601294 -16.80859,-8.404297 h -21.45313 c -4.20063,2.803863 -8.40384,5.60387 -12.60547,8.40625 -11.23508,-4.213397 -22.46973,-8.427948 -33.70507,-12.640625 h -13.07813 c -0.0521,0.07878 -0.10417,0.157552 -0.15625,0.236329 z" /><path
         id="path3"
         style="fill:#ffffff;fill-opacity:1;stroke-width:1.07718"
         d="m 341.20898,42.132812 c -6.54966,0.270343 -12.6929,4.109097 -16.17382,9.605469 -3.61274,5.590611 -6.80096,11.442653 -9.97209,17.290798 -1.20051,2.373771 -2.19695,4.674576 -2.56913,7.319157 -0.39552,3.360129 0.21997,6.723357 1.03136,9.951505 1.36181,4.870239 2.80375,9.719857 4.40014,14.524709 0.39832,0.96282 0.61631,2.05266 1.23655,2.89195 1.20722,1.04467 3.25808,1.37158 4.49725,0.19431 1.0281,-0.86723 1.69153,-2.32685 1.13866,-3.64384 -0.97152,-3.856818 -2.14893,-7.626003 -3.2725,-11.439637 -0.88884,-3.138363 -1.80238,-6.296832 -2.19261,-9.54239 -0.19215,-2.37127 0.54265,-4.711447 1.69763,-6.759254 1.5992,-3.107688 3.46432,-6.208715 6.19419,-8.455277 1.93305,-1.546249 4.41849,-2.378657 6.89644,-2.207997 1.52093,0.02477 3.08431,-0.12872 4.57325,0.202573 3.94609,1.325356 7.84391,2.791774 11.77274,4.170651 6.25389,2.237715 12.50726,4.476864 18.76148,6.71368 -1.28837,4.730696 -0.98045,9.679645 -1.24303,14.527828 -0.0619,2.105225 -0.11913,4.210583 -0.1769,6.315922 -2.37095,3.194186 -4.62061,6.835571 -4.64873,10.943781 -0.27665,3.93841 0.36698,8.25563 2.83046,11.51476 1.57689,2.09964 2.3029,4.65145 3.07603,7.12001 2.43337,8.14622 4.41291,16.45639 7.39307,24.4391 0.4656,1.24365 1.49036,2.32814 1.54253,3.69329 -0.11841,1.01812 -1.39279,1.41449 -2.21982,0.96896 -10.92769,-2.82368 -21.79963,-5.85971 -32.61559,-9.0831 -3.54072,-1.19263 -6.23826,-4.23885 -7.56124,-7.66887 -0.83855,-2.50314 -1.59719,-5.03677 -2.36608,-7.56329 -1.61257,-5.3539 -3.05668,-10.77491 -5.16098,-15.9661 -0.9678,-1.71275 -3.53884,-1.88947 -4.90441,-0.55674 -0.95884,0.73206 -1.64223,2.10334 -1.14101,3.21836 2.00397,7.25897 4.24503,14.44987 6.62626,21.59214 0.77494,2.3916 1.54616,4.83077 3.17136,6.82837 1.85731,2.32266 4.11006,4.40259 6.7656,5.77544 2.61514,1.30426 5.51377,1.8474 8.27592,2.74817 9.21313,2.67128 18.51031,5.04129 27.72179,7.71837 -3.08046,5.57975 -6.96089,10.66356 -10.87622,15.67424 -1.74407,2.21184 -3.62417,4.35751 -5.0149,6.76049 -1.07652,2.16639 -0.39269,4.86169 1.27451,6.52979 1.19136,1.28731 2.98717,1.93965 4.72763,1.70355 3.56659,-0.18767 6.87017,-1.54459 10.15145,-2.88394 3.55717,-1.57214 6.83062,-3.66549 9.86772,-6.141 0.91947,-0.74021 1.744,-1.64414 2.72137,-2.28375 1.00886,-0.36031 1.74954,0.78115 1.64162,1.68004 1.29947,11.39083 2.53802,22.8155 4.0694,34.16582 0.29529,2.55373 0.66582,5.17503 1.98262,7.43446 1.03952,2.01771 2.79429,3.51911 4.68527,4.71187 3.70369,2.40185 7.69971,4.30076 11.57174,6.4078 3.65141,1.90609 7.33248,3.79808 11.16983,5.29384 2.3191,0.30598 4.49103,-1.39691 5.45765,-3.40086 0.54043,-1.11951 0.30053,-2.48162 1.10351,-3.48438 1.24743,-1.88363 3.67485,-2.95992 4.12305,-5.34179 0.45523,-1.95833 -0.52726,-4.01578 -2.13698,-5.14413 -3.65015,-3.30675 -7.85351,-5.93367 -11.54466,-9.1879 -1.42669,-1.32482 -2.38679,-3.15387 -2.48212,-5.11481 -0.25961,-2.79649 0.48522,-5.52788 0.67091,-8.29559 0.88567,-7.75563 1.88207,-15.49802 2.93816,-23.23218 4.47303,5.06481 9.8632,9.44475 16.14517,12.04582 3.50006,1.56582 7.25554,2.88112 11.1146,2.77449 3.58336,-0.27892 6.1159,-4.5912 4.79476,-7.94631 -1.29936,-2.45966 -3.07683,-4.67119 -5.1014,-6.57713 -0.90571,-0.97169 -2.38793,-1.09121 -3.53476,-0.5041 -1.5512,0.64803 -2.61696,2.55998 -1.81983,4.15962 0.62672,1.2783 1.52054,2.40633 2.22177,3.64526 -4.65573,-1.63931 -9.24561,-3.70759 -13.04695,-6.91443 -3.66741,-3.00766 -6.80004,-6.71581 -8.97006,-10.93916 -0.71669,-1.78889 0.12416,-3.96167 1.79502,-4.88901 1.21584,-0.88995 2.38471,-1.84162 3.52864,-2.82185 2.14875,4.07053 3.83737,8.32521 6.89404,11.81318 1.29375,1.65613 4.17889,1.6432 5.32861,-0.17451 0.8612,-1.24576 0.67816,-2.92676 -0.14887,-4.13831 -1.02413,-1.81816 -2.35074,-3.46388 -3.16753,-5.41833 11.6197,-3.35583 23.40186,-6.16099 34.89876,-9.93148 3.90958,-1.62054 7.07093,-4.75855 9.18717,-8.37711 1.63918,-3.22881 2.38389,-6.80433 3.5841,-10.20116 4.48776,-14.33175 8.71762,-28.73468 12.88777,-43.165482 0.91179,-3.318675 1.96407,-6.723041 1.68634,-10.215391 -0.21839,-2.681258 -1.11252,-5.435971 -2.42628,-7.842996 -3.06297,-6.074079 -6.50801,-11.948963 -10.06982,-17.740989 -2.7303,-4.12135 -6.67824,-7.613006 -11.49404,-9.00874 -4.29834,-1.336913 -9.03286,-1.069283 -13.19819,0.61101 -10.58968,3.456393 -21.00739,7.421664 -31.56753,10.987574 -3.31202,-2.401144 -6.76089,-4.676872 -10.59447,-6.159492 -4.82159,-2.005632 -10.08123,-2.957775 -15.30006,-2.66932 -4.46007,0.0031 -8.82492,0.971647 -12.91577,2.719387 -3.75124,1.528695 -7.2587,3.638072 -10.39673,6.197316 -10.03867,-3.596232 -20.06699,-7.225816 -30.16263,-10.659306 -3.11908,-1.021853 -6.30513,-2.106385 -9.63816,-1.893429 z m 128.9375,7.107422 c 2.26661,0.0222 4.47575,0.799521 6.30723,2.122571 1.43282,0.966151 2.6303,2.225366 3.89785,3.389148 -2.98582,0.190423 -5.98451,-0.06296 -8.96484,0.222656 -10.66723,3.838221 -21.31729,7.724406 -32.03125,11.429688 -1.28423,-2.066256 -2.56145,-4.137652 -3.95508,-6.132813 10.05097,-3.516205 20.02214,-7.33299 30.18473,-10.55052 1.4868,-0.41184 3.02421,-0.522103 4.56136,-0.48073 z m -125.89843,0.02539 c 2.30933,0.105584 4.3654,1.296556 6.53852,1.955966 8.29048,2.98555 16.58146,5.969737 24.87163,8.956143 -1.29428,2.065087 -2.47584,4.203225 -3.89843,6.185547 -10.75896,-3.740807 -21.46427,-7.643642 -32.18165,-11.507812 -2.90325,0.0041 -5.8061,-0.03868 -8.70898,-0.08008 2.47029,-2.339474 5.17279,-4.845367 8.66402,-5.403844 1.56593,-0.151915 3.14423,-0.0532 4.71489,-0.105922 z m 62.02148,3.486328 c 9.04232,-0.13382 17.76353,4.573155 23.31213,11.592972 4.0588,5.060191 6.59589,11.403499 6.73423,17.919232 0.2519,4.7083 0.32616,9.423639 0.4595,14.136234 2.03993,2.753285 4.32986,5.68386 4.51563,9.25195 0.27414,3.18703 -1.13438,6.26537 -3.07554,8.71348 -1.80065,3.05514 -2.44589,6.71346 -3.57207,10.09471 -2.10065,7.02741 -3.75858,14.2165 -6.56358,21.00952 -2.03246,4.21488 -5.51867,7.52294 -9.31421,10.16276 -1.52182,1.23555 -2.48027,3.05026 -2.79521,4.97088 -1.22216,4.96017 -1.612,10.07963 -2.36356,15.10026 -1.30386,10.07419 -2.72906,20.15693 -3.60979,30.25972 -0.0627,4.45062 1.98536,8.9111 5.49056,11.65722 2.80001,2.46485 5.84129,4.65699 8.8366,6.85958 0.63819,0.69565 0.28764,1.76947 -0.37655,2.31337 -0.97532,1.18494 -1.66399,2.57144 -2.24064,3.98546 -6.51346,-3.33038 -13.05442,-6.64261 -19.2594,-10.5242 -1.69362,-1.36844 -2.03566,-3.66476 -2.19713,-5.70165 -2.56801,-18.45621 -4.29689,-37.02227 -6.85402,-55.47923 -0.32842,-2.20236 -2.09656,-3.75367 -3.54592,-5.28966 -2.81779,-2.83722 -5.84234,-5.74985 -7.16616,-9.63165 -2.56329,-6.48192 -4.07535,-13.3076 -6.10875,-19.96159 -0.92765,-3.1184 -1.74428,-6.30624 -3.15119,-9.24835 -1.18416,-1.94186 -2.70746,-3.75962 -3.17666,-6.04554 -0.85101,-3.28941 0.22893,-6.78429 2.14826,-9.494576 0.65417,-1.066855 1.5249,-2.034038 2.13267,-3.100455 0.28239,-6.587658 -0.0119,-13.234933 1.07029,-19.761549 2.55571,-11.753208 12.7569,-21.348414 24.58181,-23.3805 2.01018,-0.356778 4.05221,-0.402088 6.0887,-0.408398 z m 70.43945,9.09375 c 2.5069,-0.0251 5.16377,0.39146 7.14649,2.048828 3.25419,2.514045 5.20368,6.252954 7.02082,9.849309 1.03608,2.218045 1.50252,4.796822 0.76626,7.178888 -1.51313,7.390085 -3.966,14.540362 -6.01358,21.791303 -3.39392,11.39787 -6.72575,22.81695 -10.37931,34.13196 -1.21546,2.59127 -3.37935,4.70195 -5.87923,6.05075 -2.90606,1.24498 -6.02121,1.87629 -9.02674,2.82953 -8.86123,2.51739 -17.7669,4.85899 -26.66791,7.23271 -0.51465,-1.19488 -0.44794,-2.6355 0.36633,-3.68253 2.30001,-4.33765 3.27131,-9.12703 4.74411,-13.77703 1.70234,-5.7546 3.06816,-11.63183 5.24919,-17.228 1.12895,-1.99004 2.71952,-3.65257 3.26692,-5.9334 1.17589,-3.7209 1.22953,-7.72158 0.18741,-11.45043 -0.87593,-2.689053 -2.50423,-5.037891 -4.0874,-7.350482 -0.23291,-2.76038 -0.0426,-5.534658 -0.10498,-8.301162 -0.006,-3.857505 -0.19949,-7.740695 -1.15674,-11.427353 0.24412,-1.121348 1.44049,-1.425234 2.39454,-1.681641 7.28766,-2.684125 14.61605,-5.266683 21.9235,-7.900268 2.24279,-0.781886 4.47144,-1.646245 6.72298,-2.377076 1.17586,0.02172 2.35144,-0.0012 3.52734,-0.0039 z m -50.32421,36.753906 c -1.29908,0.06117 -3.02367,0.984891 -3.05469,2.539062 -0.415,2.71879 -0.48998,5.50683 -0.21222,8.23772 0.54045,2.10008 3.1834,3.39032 5.10675,2.25056 1.13176,-0.58854 1.74474,-1.86783 1.63451,-3.11774 0.13834,-2.46718 0.22951,-5.04752 -0.16984,-7.52075 -0.4855,-1.341941 -1.78986,-2.569113 -3.30451,-2.388852 z m -42.23047,0.03125 c -1.89197,0.404789 -2.92733,2.469742 -2.76987,4.286222 -0.0453,2.16943 -0.0821,4.35487 0.10971,6.51456 0.25539,1.42858 1.5152,2.58006 2.98633,2.5957 1.95538,0.12439 3.84778,-1.5197 3.81121,-3.51991 0.18245,-2.09787 -0.0848,-4.20326 -0.11807,-6.30203 -0.0896,-1.3515 -0.61019,-2.988071 -2.10272,-3.333908 -0.6141,-0.204291 -1.26989,-0.307706 -1.91659,-0.240634 z m -0.10352,59.242192 c 0.86324,0.80942 1.90148,1.50207 2.41228,2.61993 0.75833,1.36885 0.58001,2.98081 0.79799,4.4779 0.0785,0.94485 0.14682,1.89057 0.22137,2.83576 -3.30598,4.40629 -7.13436,8.57035 -11.9856,11.29407 -2.89404,1.7353 -6.08747,2.86434 -9.21166,4.10241 6.17856,-7.58332 12.18913,-15.37161 16.44118,-24.22312 0.26751,-0.54223 0.535,-1.08448 0.80296,-1.62648 0.17383,0.17317 0.34765,0.34635 0.52148,0.51953 z" /></g><g
       id="g12"
       transform="translate(0,271.22488)"><path
         style="fill:none;fill-opacity:1;stroke:none;stroke-width:0.264583;stroke-dasharray:0.264583, 3.175"
         d="M 0,269.99999 H 269.99999 V 540.00013 H 0 Z"
         id="path14"
         transform="translate(0,-271.22487)" /><path
         style="fill:#000000;fill-opacity:1;stroke:#e6e6e6;stroke-width:0.264583;stroke-dasharray:0.264583, 3.175"
         d="M 237.06665,88.899994 V 76.199996 l -12.7,-16.933333 -25.39999,-12.7 h -16.93334 l -21.16666,8.466667 -16.93333,16.933333 -8.46667,29.633327 -21.16667,21.16667 -29.633327,16.93333 -33.866666,46.56667 -16.933333,29.63333 c 0,0 22.140707,9.89607 33.866666,12.7 12.427789,2.97175 38.1,4.23333 38.1,4.23333 h 80.43333 l 21.16666,-29.63333 8.46667,-33.86667 v -33.86666 l -8.46667,-25.4 8.46667,-21.166666 z"
         id="path11" /><path
         id="path12"
         style="fill:#ffffff;fill-opacity:1;stroke-width:1.08675"
         d="m 190.20312,42.121094 c -3.30685,0.06652 -6.59119,-0.166976 -9.81338,0.429127 -4.18383,0.693733 -8.18892,2.249639 -11.97727,4.045209 -11.68202,5.714555 -20.99577,15.772837 -26.44551,27.520514 -2.87992,6.033804 -4.79466,12.46 -6.57642,18.885158 -1.21294,4.328632 -2.595,8.734608 -5.3545,12.359828 -3.55951,4.99481 -8.20515,9.1741 -13.35487,12.47651 -2.87708,1.78304 -6.07561,2.92522 -9.24823,4.05204 -9.696061,3.76191 -18.150739,10.11398 -25.688396,17.17693 -8.734093,8.2611 -16.341417,17.63504 -23.385819,27.35441 -9.653859,13.44844 -18.062111,27.71698 -25.783875,42.35394 -1.248286,2.4739 -2.56027,4.94232 -3.477194,7.55922 -0.46965,1.82442 0.756849,3.73754 2.498291,4.31397 1.255665,0.51431 2.762042,0.11707 3.576474,-0.97296 1.620709,-1.82447 2.515022,-4.13901 3.752199,-6.21522 3.963446,-7.48658 7.936754,-14.97541 12.3863,-22.18599 8.427669,-13.88079 17.789073,-27.26965 28.731345,-39.30134 6.797134,-7.40651 14.296331,-14.3207 23.004405,-19.42609 5.81266,-3.33633 12.36639,-5.69195 19.13613,-5.66444 3.82312,-0.0995 7.71105,0.37379 11.23791,1.92252 4.90693,2.03151 9.31823,5.17701 13.05418,8.93185 3.82326,3.96717 6.48936,9.1508 6.96155,14.6817 0.74209,7.24869 -1.28024,14.47768 -4.18036,21.05853 -4.8882,10.98997 -12.26719,20.64253 -20.09799,29.68748 -7.67869,8.80331 -16.16799,16.85049 -24.87804,24.62033 -1.24792,1.15955 -2.54281,2.85295 -1.93044,4.65513 0.57606,1.90652 2.88561,3.24788 4.76713,2.33724 2.6325,-0.98854 4.42701,-3.27562 6.55013,-5.00691 12.85114,-11.64207 25.01658,-24.24043 34.65804,-38.7158 4.85981,-7.3471 9.04668,-15.20183 11.44285,-23.72683 2.11413,-7.62205 2.53595,-15.97432 -0.28052,-23.47701 -1.63763,-4.46941 -4.36621,-8.48215 -7.72785,-11.83429 -1.65283,-1.73301 -3.42573,-3.35023 -5.31798,-4.81858 7.25983,-5.33531 16.09112,-8.12695 24.95392,-9.26797 3.65576,-0.55959 7.46358,-0.31105 10.99725,-1.53477 2.06172,-0.89354 3.3068,-2.97814 3.78337,-5.09942 0.85052,-2.95574 1.5567,-5.98629 3.02247,-8.71638 3.73464,-7.57914 9.85029,-13.783058 16.76741,-18.519525 0.47776,-0.525229 5.86444,-3.212013 8.03417,-2.721945 2.16974,0.490068 0.54986,2.790783 -2.0332,6.516256 -3.84427,5.54449 -7.12442,11.789938 -7.42188,18.531254 -0.3654,5.8379 0.94205,11.57346 2.4375,17.22265 2.22584,8.94522 3.54834,18.139 3.54465,27.36892 0.13887,7.08177 0.17897,14.17907 -0.31976,21.2476 -0.89063,8.91819 -2.86579,17.71793 -5.67236,26.22383 -3.47159,10.13809 -8.73426,19.83559 -16.37834,27.43702 -2.22959,2.29844 -4.79814,4.24805 -7.02575,6.51755 -0.96491,1.08528 -1.36949,2.7474 -0.55439,4.03691 0.85184,1.67957 3.19462,2.89656 4.89939,1.71406 5.30111,-3.19365 9.5917,-7.74549 13.37622,-12.56201 5.95095,-7.74821 10.30986,-16.56712 13.43515,-25.78935 3.7953,-11.18545 5.75502,-23.04623 6.08134,-34.86109 0.25918,-12.0587 0.0412,-24.14741 -2.24092,-36.01034 -0.87289,-4.81246 -2.13787,-9.61924 -3.30871,-14.39598 -0.98059,-4.63899 -0.93001,-9.59649 0.83928,-14.04612 1.33138,-3.65948 3.49971,-7.03372 6.39451,-9.652482 3.16912,0.130995 6.33845,0.255647 9.50196,0.488281 -1.08913,1.661253 -2.72506,3.155181 -2.96485,5.224609 -0.21487,2.647821 3.19011,4.928622 5.47038,3.384235 1.94595,-1.205077 3.18588,-3.124122 4.41072,-4.956369 2.59651,-3.854162 4.25976,-8.470915 4.40601,-13.07435 0.13567,-5.454853 -2.14538,-10.830214 -5.45872,-15.136337 -2.01677,-2.696408 -4.58209,-4.90001 -7.21061,-6.975639 -4.13218,-3.450448 -8.06841,-7.076614 -12.6821,-9.889449 -5.47928,-3.441476 -11.49229,-6.186639 -17.87149,-7.411069 -2.465,-0.361844 -4.96449,-0.376796 -7.45091,-0.368756 z m 1.27763,43.917523 c -4.89117,5.094326 -8.83264,11.201429 -11.23256,17.794493 -0.67312,1.82598 -1.20592,3.73759 -1.66419,5.6708 -6.54405,0.37934 -13.06727,1.05457 -19.34962,3.0052 -6.13625,1.80972 -12.01608,4.55424 -17.23045,8.27214 -0.88594,0.63001 -1.82766,1.37883 -2.72852,2.06445 -3.58596,-1.70713 -7.42531,-2.80211 -11.30859,-3.58984 3.67626,-3.62458 7.43523,-7.40778 10.08789,-11.79883 2.00097,-3.31849 3.22308,-6.9829 4.36507,-10.640901 1.88666,-6.292637 3.34693,-12.784204 6.32991,-18.691234 3.90044,-8.279829 9.47286,-16.033071 17.15172,-21.183551 6.63795,-4.53162 14.58444,-7.267454 22.64939,-7.339782 h -2e-5 c 8.81856,0 17.62405,2.756644 24.67673,7.958171 6.78485,4.386592 11.33954,8.308106 16.411,14.37198 3.01919,4.071896 4.44511,10.238722 2.59196,8.953049 -1.58756,-1.457712 -3.15702,-2.962674 -4.98962,-4.121657 -1.45145,-0.992043 -3.01615,-2.144602 -4.62658,-3.048878 -11.09235,-5.995424 -23.5422,4.588981 -31.13352,12.32439 z M 202.1719,70.839844 c 1.62327,-2.332134 1.77111,-5.557833 0.81804,-8.259482 -1.16168,-3.534173 -4.3821,-6.369595 -8.12797,-6.754395 -3.45654,-0.515373 -7.04557,1.065413 -9.12114,3.850025 -1.77333,2.244593 -2.48846,5.256235 -1.88675,8.056379 0.65851,3.78237 3.72507,7.056465 7.53053,7.764677 3.50186,0.7683 7.6968,-0.217129 9.72283,-3.127907 z m -8.50198,-7.232422 c 1.83049,0.03439 2.80169,2.836933 1.21075,3.872355 -0.94468,0.984781 -2.66657,0.508036 -3.20504,-0.670605 -0.73409,-1.386105 0.41543,-3.263007 1.99429,-3.20175 z M 90.978516,148.95898 c -2.419078,0.56348 -4.180828,2.56679 -5.455078,4.58008 -0.625497,1.37384 -0.301161,3.11597 0.798828,4.15625 0.05229,0.48294 0.743134,0.35868 0.98847,0.72074 1.347997,0.81874 3.132078,0.44145 4.230212,-0.62369 1.754454,-1.2261 3.560383,-3.03242 3.502021,-5.32752 -0.17611,-1.94348 -1.973578,-3.97004 -4.064453,-3.50586 z m -8.72461,9.375 c -2.092574,0.13036 -3.397137,2.02195 -4.645471,3.47145 -6.749705,8.3564 -13.036672,17.09391 -18.872087,26.0918 -1.032767,1.73628 -2.376001,3.37445 -2.86916,5.36839 -0.416624,2.31444 1.99443,4.23631 4.174746,4.04042 1.454729,-0.0276 2.63311,-1.06481 3.26362,-2.31086 5.177426,-7.69509 10.253269,-15.4791 15.995215,-22.77313 2.33031,-3.04186 4.884951,-5.95391 6.759778,-9.31385 0.479923,-1.22829 -0.02277,-2.59228 -0.820902,-3.54719 -0.278466,-0.3474 -0.846101,-0.41333 -1.188864,-0.72624 -0.560617,-0.25408 -1.18581,-0.33839 -1.796875,-0.30079 z m 4.382813,1.14454 c -0.03281,0.51563 0.528532,-0.17971 0,0 z" /></g></g></svg>
