<?xml version="1.0" encoding="UTF-8" standalone="no"?><!DOCTYPE svg PUBLIC "-//W3C//DTD SVG 1.1//EN" "http://www.w3.org/Graphics/SVG/1.1/DTD/svg11.dtd">
<svg width="100%" height="100%" viewBox="0 0 45 45" version="1.1" xmlns="http://www.w3.org/2000/svg"
     xml:space="preserve"
     style="fill-rule:evenodd;clip-rule:evenodd;stroke-linecap:round;stroke-linejoin:round;stroke-miterlimit:1.5;"><g><path d="M16.583,18.749c0,0 1.157,5.854 0.106,8.424c-1.325,3.236 -8.051,10.989 -8.051,10.989l7.199,-4.359l1.648,4.387l3.897,-4.341l3.188,4.562l3.971,-4.328l2.743,4.16l2.877,-4.141l3.959,4.611c0,0 0.83,-13.384 0.144,-18.503c-0.578,-4.303 -1.637,-10.008 -4.264,-12.21c-2.627,-2.202 -8.2,-1.618 -11.5,-1c-3.082,0.577 -7.773,3.99 -8.303,4.709" style="stroke:#000;stroke-width:1.5px;"/><path d="M14.092,11.843c0,0 -1.393,0.302 -2.092,0.434c-1.015,0.193 -2.854,-0.05 -4,0.723c-1.167,0.787 -2.71,2.622 -3,4c-0.29,1.378 1.033,4.953 1.258,4.268c0.742,-2.268 3.422,-1.948 4.742,-2.268c2.49,-0.603 10,0 10,0c0,0 -0.841,-1.939 -2,-3c-0.596,-0.546 -3.675,-1.637 -4,-2c-0.733,-0.819 -0.804,-2.037 -0.804,-2.037l-0.104,-0.12" style="fill:#fff;stroke:#000;stroke-width:1.5px;"/><g><path d="M19,13c0.513,-0.461 1.539,-1.382 2.56,-1.589c1.277,-0.258 3.681,-0.028 5.103,0.04c1.135,0.055 2.666,0.267 3.431,0.373" style="fill:none;stroke:#fff;stroke-width:1.5px;"/><path d="M22.929,12.515c0.371,0.16 0.542,0.591 0.382,0.962c-0.16,0.372 -0.591,0.543 -0.962,0.383c-0.371,-0.16 -0.543,-0.591 -0.383,-0.963c0.161,-0.371 0.592,-0.542 0.963,-0.382Z" style="stroke:#fff;stroke-width:1.5px;"/></g><g><path d="M13.053,14.769l-0.836,-0.769" style="fill:none;stroke:#000;stroke-width:1.5px;"/></g><path d="M35.949,32.335l-2.612,-3.541l-2.94,3.491l-2.614,-3.374l-2.98,3.979l-2.243,-4.008l-3.478,3.653" style="fill:none;stroke:#fff;stroke-width:1.5px;"/></g></svg>