<?xml version="1.0" encoding="UTF-8" standalone="no"?>
<svg
   version="1.0"
   width="3544.2852pt"
   height="83.96701pt"
   viewBox="0 0 3544.2851 83.96701"
   preserveAspectRatio="xMidYMid"
   id="svg2"
   xmlns="http://www.w3.org/2000/svg"
   xmlns:svg="http://www.w3.org/2000/svg">
  <defs
     id="defs2" />
  <metadata
     id="metadata1">
Created by potrace 1.15, written by Peter Selinger 2001-2017
</metadata>
  <g
     transform="matrix(0.1,0,0,-0.1,1147.3842,538)"
     fill="#000000"
     stroke="none"
     id="g2">
    <path
       d="m 623,5354 c -20,-20 -24,-32 -19,-55 3,-16 4,-29 3,-29 -1,0 -29,11 -62,25 -66,27 -139,32 -192,13 -29,-10 -47,-37 -25,-38 7,-1 281,-39 317,-44 11,-2 40,-9 64,-15 25,-7 61,-11 81,-9 l 37,3 -14,-42 c -10,-29 -28,-52 -53,-70 -56,-41 -83,-86 -88,-148 -5,-64 0,-88 30,-135 12,-19 22,-39 23,-45 0,-14 64,-54 104,-65 43,-11 104,1 140,28 36,26 92,123 98,169 9,67 -13,123 -69,175 -39,37 -51,56 -55,86 l -5,39 93,-13 c 52,-7 109,-18 127,-24 18,-7 49,-10 68,-7 27,5 33,3 26,-6 -5,-7 -13,-31 -17,-55 -6,-37 -4,-47 16,-68 26,-28 55,-31 87,-8 42,29 19,114 -31,114 -9,0 -19,5 -22,10 -8,13 7,13 160,-6 109,-13 142,-21 200,-50 92,-45 143,-51 221,-26 48,15 73,17 125,11 35,-4 114,-11 175,-15 l 111,-7 -16,-43 c -11,-29 -31,-53 -59,-73 -86,-63 -107,-171 -53,-272 16,-30 45,-67 66,-84 32,-26 45,-30 99,-30 52,0 70,5 105,28 24,16 40,31 37,34 -3,3 6,19 19,35 27,31 45,86 45,134 0,46 -46,130 -85,154 -24,15 -35,30 -40,56 -3,19 -8,41 -11,49 -4,10 9,15 48,19 142,14 347,37 385,42 l 43,6 -6,-46 c -5,-37 -3,-50 11,-66 40,-44 121,-8 113,50 -4,26 0,29 49,44 29,9 55,22 59,28 5,8 1,9 -12,3 -79,-34 -104,-38 -135,-22 l -31,14 69,8 c 37,4 84,9 103,10 19,2 141,17 270,33 129,17 269,31 310,31 41,1 86,5 99,8 20,5 23,3 18,-11 -4,-10 -7,-19 -7,-21 0,-2 -20,-18 -44,-34 -56,-39 -86,-99 -86,-170 0,-50 26,-121 50,-136 6,-4 8,-10 5,-15 -8,-13 55,-57 100,-69 47,-12 106,-1 144,27 36,26 92,123 98,169 9,66 -13,123 -68,175 -35,33 -52,57 -56,81 l -5,34 183,21 184,22 150,-20 c 196,-27 183,-25 234,-39 25,-7 62,-11 83,-9 24,2 36,0 34,-7 -3,-5 -10,-27 -17,-47 -7,-21 -16,-38 -21,-38 -17,0 -92,-76 -105,-107 -32,-78 8,-224 75,-271 63,-45 154,-47 211,-4 39,29 93,126 99,177 7,64 -20,126 -73,172 -34,30 -46,47 -51,79 l -6,41 93,-13 c 52,-7 109,-18 127,-24 18,-7 49,-10 68,-7 27,5 33,3 26,-6 -5,-7 -9,-19 -9,-27 0,-8 -4,-26 -7,-40 -16,-60 68,-106 109,-60 34,37 10,110 -36,110 -10,0 -21,5 -24,10 -8,14 18,13 165,-6 102,-13 138,-22 195,-50 92,-45 143,-51 221,-26 48,15 73,17 125,11 35,-4 114,-11 176,-15 l 112,-7 -17,-43 c -11,-28 -32,-53 -60,-74 -59,-42 -86,-103 -80,-180 2,-34 12,-69 23,-86 11,-16 19,-32 18,-36 -2,-3 15,-22 37,-42 63,-57 148,-61 221,-10 21,14 37,30 34,34 -3,4 3,14 12,21 26,22 53,90 53,135 0,55 -43,138 -84,164 -27,16 -35,29 -43,69 l -10,50 51,5 c 130,13 345,37 384,43 l 44,6 -7,-47 c -9,-58 11,-86 61,-86 39,0 69,36 62,74 -4,21 1,25 48,40 29,9 56,22 60,28 5,8 1,9 -12,3 -79,-34 -104,-38 -135,-22 l -31,14 69,8 c 37,4 84,9 103,10 19,2 141,17 270,33 129,17 269,31 310,31 41,1 85,4 97,8 30,7 30,-12 -1,-40 -14,-12 -39,-35 -57,-51 -67,-63 -78,-153 -29,-253 33,-68 64,-95 125,-112 86,-22 161,20 213,119 52,102 38,188 -43,258 -31,26 -46,48 -50,73 l -7,36 184,21 183,22 150,-20 c 83,-11 162,-22 177,-24 14,-2 43,-9 63,-16 20,-7 54,-10 76,-8 24,2 37,0 35,-7 -3,-5 -10,-27 -17,-47 -7,-21 -16,-38 -20,-38 -18,0 -81,-65 -101,-103 -27,-54 -22,-137 12,-193 14,-21 25,-43 25,-49 0,-5 21,-22 47,-38 36,-22 59,-29 97,-29 66,0 107,24 154,93 70,102 60,211 -28,286 -34,30 -46,47 -51,79 l -6,41 93,-13 c 52,-7 109,-18 127,-24 18,-7 49,-10 68,-7 25,4 32,3 27,-6 -4,-7 -9,-21 -10,-32 0,-11 -4,-29 -8,-40 -4,-14 1,-30 15,-48 37,-46 96,-31 114,29 8,26 -27,74 -54,74 -10,0 -22,5 -25,10 -8,14 17,13 168,-6 108,-14 140,-22 193,-50 87,-45 137,-51 221,-26 55,16 79,19 127,12 33,-5 110,-12 172,-16 l 112,-7 -14,-42 c -11,-29 -27,-51 -58,-72 -89,-63 -110,-168 -55,-274 45,-85 86,-114 164,-114 51,0 69,5 104,28 23,15 39,31 37,36 -3,5 3,16 14,26 78,70 56,245 -38,300 -22,13 -31,29 -38,66 l -10,48 50,5 c 129,13 345,37 384,43 l 44,6 -7,-47 c -9,-58 11,-86 61,-86 39,0 69,36 62,74 -4,21 0,26 36,35 23,5 50,17 61,26 l 20,17 -20,-8 c -11,-3 -38,-13 -59,-21 -34,-12 -44,-12 -74,0 l -36,14 70,8 c 38,4 85,9 104,10 19,2 141,17 270,33 129,17 269,31 310,31 41,1 86,5 99,8 21,5 22,3 16,-18 -4,-13 -12,-26 -18,-28 -24,-9 -91,-79 -104,-108 -37,-89 11,-231 94,-280 72,-42 165,-32 215,23 34,39 78,136 78,175 0,58 -27,115 -75,157 -31,26 -46,48 -50,73 l -7,36 149,17 c 200,24 213,26 213,42 0,8 -8,14 -17,14 -9,0 -36,10 -61,21 -62,31 -140,22 -232,-25 -52,-26 -92,-38 -152,-46 -112,-14 -108,-15 -108,23 0,40 -25,67 -63,67 -49,0 -86,-67 -55,-98 22,-22 -3,-25 -115,-12 -124,14 -193,6 -255,-30 -45,-27 -48,-25 -18,11 58,69 15,169 -74,169 -52,0 -76,-13 -95,-50 -25,-49 -19,-88 20,-127 20,-20 34,-37 33,-38 -2,-1 -57,-9 -123,-17 -115,-15 -122,-14 -158,4 -84,42 -181,32 -311,-34 l -60,-30 -171,6 c -240,10 -229,9 -208,24 9,6 20,12 24,12 3,0 12,13 19,30 10,25 10,34 -4,55 -46,70 -142,20 -116,-61 7,-20 9,-38 6,-41 -3,-3 -85,4 -183,16 -98,12 -181,21 -185,21 -19,0 -5,17 22,27 71,27 78,135 11,180 -47,32 -83,29 -126,-8 -30,-26 -35,-37 -35,-74 0,-28 7,-51 21,-69 12,-15 19,-29 17,-31 -2,-2 -26,2 -53,11 -33,10 -68,12 -106,8 -65,-7 -250,11 -325,32 -29,8 -76,13 -105,13 -53,-1 -158,8 -191,17 -12,4 -15,13 -11,42 5,43 -10,68 -49,77 -40,10 -83,-34 -74,-77 5,-26 3,-29 -12,-23 -117,49 -133,51 -264,29 -28,-4 -49,0 -84,16 -64,32 -139,24 -236,-24 -50,-25 -97,-39 -148,-46 -113,-14 -110,-15 -110,23 0,40 -25,67 -63,67 -50,0 -87,-66 -55,-98 22,-22 -3,-25 -115,-12 -124,14 -193,6 -255,-30 -45,-27 -48,-25 -18,11 60,71 15,169 -79,169 -64,0 -105,-39 -105,-100 0,-35 6,-48 35,-77 20,-20 34,-37 33,-38 -2,-1 -57,-9 -123,-17 -115,-15 -122,-14 -158,4 -56,28 -124,33 -188,14 -65,-18 -153,-56 -146,-62 2,-2 29,7 60,21 31,14 83,31 117,37 51,10 69,9 116,-6 31,-10 54,-20 51,-22 -2,-3 -78,-13 -169,-24 -130,-16 -203,-19 -358,-15 -224,6 -250,8 -250,16 0,4 10,9 23,13 31,7 50,48 37,80 -19,52 -85,58 -116,11 -13,-20 -14,-30 -4,-60 7,-20 9,-39 6,-42 -5,-5 -377,36 -384,42 -2,2 13,11 33,20 37,18 65,59 65,95 0,53 -57,110 -110,110 -29,0 -76,-29 -89,-54 -21,-45 -21,-63 4,-109 13,-26 23,-47 22,-47 -1,0 -24,7 -52,15 -34,11 -68,13 -106,9 -65,-7 -250,11 -325,32 -29,8 -76,13 -105,13 -53,-1 -158,8 -191,17 -12,4 -15,13 -11,42 5,43 -10,68 -49,77 -40,10 -83,-34 -74,-77 5,-26 3,-29 -12,-23 -117,49 -133,51 -264,29 -28,-4 -49,0 -84,16 -64,32 -139,24 -236,-24 -50,-25 -97,-39 -148,-46 -113,-14 -110,-15 -110,23 0,61 -67,90 -110,47 -22,-22 -25,-51 -9,-82 11,-21 10,-21 -67,-12 -142,16 -222,11 -287,-19 l -58,-27 25,31 c 30,35 33,76 11,119 -19,37 -43,50 -95,50 -59,0 -100,-42 -100,-100 0,-35 6,-48 35,-77 20,-20 34,-37 33,-38 -2,-1 -57,-9 -123,-17 -115,-15 -122,-14 -158,4 -84,42 -177,32 -316,-34 l -64,-31 -166,7 c -211,9 -221,10 -221,17 0,4 11,10 24,13 14,3 28,17 34,33 27,78 -69,126 -115,57 -14,-22 -15,-31 -4,-61 7,-19 10,-37 7,-40 -5,-6 -377,36 -384,42 -2,2 12,10 30,19 37,18 68,61 68,96 0,53 -57,110 -110,110 -61,0 -116,-68 -104,-129 4,-17 13,-36 20,-42 8,-6 14,-17 14,-24 0,-10 -10,-10 -47,1 -32,10 -67,12 -104,8 -64,-7 -250,11 -324,31 -28,8 -80,14 -116,14 -35,0 -80,2 -99,5 -111,17 -113,17 -101,29 12,12 15,56 3,73 -9,13 -46,34 -62,34 -6,0 -22,-12 -37,-26 z m 3557,-39 c 14,-8 23,-15 20,-16 -13,-4 -270,-34 -270,-32 0,5 84,46 110,54 41,12 113,9 140,-6 z m 3950,0 c 14,-8 23,-15 20,-16 -25,-8 -268,-33 -261,-26 4,4 35,19 67,32 66,28 136,31 174,10 z m 3950,0 c 14,-8 23,-15 20,-16 -25,-8 -268,-33 -261,-26 4,4 35,19 67,32 66,28 136,31 174,10 z M 526,5291 c 15,-9 4,-10 -51,-5 -93,9 -123,27 -34,21 37,-3 75,-10 85,-16 z m 3950,0 c 15,-9 4,-10 -51,-5 -93,9 -123,27 -34,21 37,-3 75,-10 85,-16 z m 3950,0 c 15,-8 3,-10 -51,-5 -93,9 -123,27 -34,21 37,-3 75,-10 85,-16 z m -4981,-70 c 22,-5 36,-9 30,-10 -5,-1 -64,-8 -130,-16 -141,-18 -146,-18 -120,-3 54,32 146,44 220,29 z m 3955,0 c 43,-7 40,-8 -55,-19 -195,-25 -192,-24 -170,-10 51,32 139,43 225,29 z m 3950,0 c 25,-5 40,-9 35,-10 -6,0 -65,-8 -130,-16 -146,-18 -157,-18 -130,-3 54,32 142,43 225,29 z m -9891,-47 c 10,-9 -56,-3 -69,7 -11,7 -4,8 25,3 22,-4 42,-8 44,-10 z m 3950,0 c 10,-9 -56,-3 -69,7 -11,7 -4,8 25,3 22,-4 42,-8 44,-10 z m 3950,0 c 2,-2 -10,-4 -27,-4 -17,0 -34,4 -37,10 -5,9 53,3 64,-6 z m -6585,-23 c 16,-6 26,-14 23,-17 -5,-6 -293,-43 -327,-43 -24,0 75,48 133,64 56,16 125,14 171,-4 z m 7912,-4 28,-15 -40,-6 c -78,-12 -307,-36 -311,-33 -5,6 108,55 153,66 50,13 134,7 170,-12 z m -8913,-51 c 59,-8 110,-16 113,-18 2,-3 -22,-11 -54,-18 -51,-10 -67,-10 -113,4 -30,9 -65,23 -79,31 l -25,14 h 25 c 14,0 74,-6 133,-13 z m 3950,0 c 59,-8 110,-16 113,-18 2,-3 -22,-11 -54,-18 -51,-10 -67,-10 -113,4 -30,9 -65,23 -79,31 l -25,14 h 25 c 14,0 74,-6 133,-13 z m 3955,0 c 57,-8 106,-17 109,-19 2,-3 -21,-10 -51,-17 -61,-12 -96,-8 -163,21 -77,33 -55,36 105,15 z"
       id="path1" />
    <path
       d="m -11169.049,5353.9999 c -20,-20 -24,-32 -19,-55 3,-16 4,-29 3,-29 -1,0 -29,11 -62,25 -66,27 -139,32 -192,13 -29,-10 -47,-37 -25,-38 7,-1 281,-39 317,-44 11,-2 40,-9 64,-15 25,-7 61,-11 81,-9 l 37,3 -14,-42 c -10,-29 -28,-52 -53,-70 -56,-41 -83,-86 -88,-148 -5,-64 0,-88 30,-135 12,-19 22,-39 23,-45 0,-14 64,-54 104,-65 43,-11 104,1 140,28 36,26 92,123 98,169 9,67 -13,123 -69,175 -39,37 -51,56 -55,86 l -5,39 93,-13 c 52,-7 109,-18 127,-24 18,-7 49,-10 68,-7 27,5 33,3 26,-6 -5,-7 -13,-31 -17,-55 -6,-37 -4,-47 16,-68 26,-28 55,-31 87,-8 42,29 19,114 -31,114 -9,0 -19,5 -22,10 -8,13 7,13 160,-6 109,-13 142,-21 200,-50 92,-45 143,-51 221.0003,-26 48,15 73,17 125,11 35,-4 114,-11 175,-15 l 111,-7 -16,-43 c -11,-29 -31,-53 -59,-73 -86,-63 -107,-171 -53,-272 16,-30 45,-67 66,-84 32,-26 45,-30 99,-30 52,0 70,5 105,28 24,16 40,31 37,34 -3,3 6,19 19,35 27,31 45,86 45,134 0,46 -46,130 -85,154 -24,15 -35,30 -40,56 -3,19 -8,41 -11,49 -4,10 9,15 48,19 142,14 347,37 385,42 l 43,6 -6,-46 c -5,-37 -3,-50 11,-66 40,-44 121,-8 113,50 -4,26 0,29 49,44 29,9 55,22 59,28 5,8 1,9 -12,3 -79,-34 -104,-38 -135,-22 l -31,14 69,8 c 37,4 84,9 103,10 19,2 141,17 270,33 129,17 269,31 310,31 41,1 86,5 99,8 20,5 23,3 18,-11 -4,-10 -7,-19 -7,-21 0,-2 -20,-18 -44,-34 -56,-39 -86,-99 -86,-170 0,-50 26,-121 50,-136 6,-4 8,-10 5,-15 -8,-13 55,-57 100,-69 47,-12 106,-1 144,27 36,26 92,123 98,169 9,66 -13,123 -68,175 -35,33 -52,57 -56,81 l -5,34 183,21 184,22 150,-20 c 196,-27 183,-25 234,-39 25,-7 62,-11 83,-9 24,2 36,0 34,-7 -3,-5 -10,-27 -17,-47 -7,-21 -16,-38 -21,-38 -17,0 -92,-76 -105,-107 -32,-78 8,-224 75,-271 63,-45 154,-47 211,-4 39,29 93,126 99,177 7,64 -20,126 -73,172 -34,30 -46,47 -51,79 l -6,41 93,-13 c 52,-7 109,-18 127,-24 18,-7 49,-10 68,-7 27,5 33,3 26,-6 -5,-7 -9,-19 -9,-27 0,-8 -4,-26 -7,-40 -16,-60 68,-106 109,-60 34,37 10,110 -36,110 -10,0 -21,5 -24,10 -8,14 18,13 165,-6 102,-13 138,-22 195,-50 92,-45 143,-51 221,-26 48,15 73,17 125,11 35,-4 114,-11 176,-15 l 112,-7 -17,-43 c -11,-28 -32,-53 -60,-74 -59,-42 -86,-103 -80,-180 2,-34 12,-69 23,-86 11,-16 19,-32 18,-36 -2,-3 15,-22 37,-42 63,-57 148,-61 221,-10 21,14 37,30 34,34 -3,4 3,14 12,21 26,22 53,90 53,135 0,55 -43,138 -84,164 -27,16 -35,29 -43,69 l -10,50 51,5 c 130,13 345,37 384,43 l 44,6 -7,-47 c -9,-58 11,-86 61,-86 39,0 69,36 62,74 -4,21 1,25 48,40 29,9 56,22 60,28 5,8 1,9 -12,3 -79,-34 -104,-38 -135,-22 l -31,14 69,8 c 37,4 84,9 103,10 19,2 141,17 270,33 129,17 269,31 310,31 41,1 85,4 97,8 30,7 30,-12 -1,-40 -14,-12 -39,-35 -57,-51 -67,-63 -78,-153 -29,-253 33,-68 64,-95 125,-112 86,-22 161,20 213,119 52,102 38,188 -43,258 -31,26 -46,48 -50,73 l -7,36 184,21 183,22 150,-20 c 83,-11 162,-22 177,-24 14,-2 43,-9 63,-16 20,-7 54,-10 76,-8 24,2 37,0 35,-7 -3,-5 -10,-27 -17,-47 -7,-21 -16,-38 -20,-38 -18,0 -81,-65 -101,-103 -27,-54 -22,-137 12,-193 14,-21 25,-43 25,-49 0,-5 21,-22 47,-38 36,-22 59,-29 97,-29 66,0 107,24 154,93 70,102 60,211 -28,286 -34,30 -46,47 -51,79 l -6,41 93,-13 c 52,-7 109,-18 127,-24 18,-7 49,-10 68,-7 25,4 32,3 27,-6 -4,-7 -9,-21 -10,-32 0,-11 -4,-29 -8,-40 -4,-14 1,-30 15,-48 37,-46 96,-31 114,29 8,26 -27,74 -54,74 -10,0 -22,5 -25,10 -8,14 17,13 168,-6 108,-14 140,-22 193,-50 87,-45 137,-51 221,-26 55,16 79,19 127,12 33,-5 110,-12 172,-16 l 112,-7 -14,-42 c -11,-29 -27,-51 -58,-72 -89,-63 -110,-168 -55,-274 45,-85 86,-114 164,-114 51,0 69,5 104,28 23,15 39,31 37,36 -3,5 3,16 14,26 78,70 56,245 -38,300 -22,13 -31,29 -38,66 l -10,48 50,5 c 129,13 345.0001,37 384,43 l 44,6 -7,-47 c -9,-58 11,-86 60.99999,-86 39,0 69,36 62,74 -4,21 0,26 36,35 23,5 50,17 61,26 l 20,17 -20,-8 c -11,-3 -38,-13 -59,-21 -34,-12 -44,-12 -74,0 l -36,14 70,8 c 38,4 85,9 104,10 19,2 141,17 270,33 129,17 269,31 310,31 41,1 86,5 99,8 21,5 22,3 16,-18 -4,-13 -12,-26 -18,-28 -24,-9 -91,-79 -104,-108 -37,-89 11,-231 94,-280 72.000006,-42 165.000006,-32 215.000006,23 33.999994,39 77.999994,136 77.999994,175 0,58 -27,115 -74.999994,157 -31,26 -46,48 -50,73 l -7,36 148.999994,17 c 200,24 213,26 213,42 0,8 -8,14 -17,14 -9,0 -36,10 -61,21 -62,31 -140,22 -231.999994,-25 -52,-26 -92,-38 -152,-46 -112.000006,-14 -108.000006,-15 -108.000006,23 0,40 -25,67 -63,67 -49,0 -86,-67 -55,-98 22,-22 -3,-25 -115,-12 -124,14 -193,6 -255,-30 -45,-27 -48,-25 -18,11 58,69 15,169 -74,169 -52,0 -76,-13 -95,-50 -25,-49 -19,-88 20,-127 20,-20 34,-37 33,-38 -2,-1 -57,-9 -123,-17 -114.99999,-15 -121.99999,-14 -157.99989,4 -84,42 -181.0001,32 -311.0001,-34 l -60,-30 -171,6 c -240,10 -229,9 -208,24 9,6 20,12 24,12 3,0 12,13 19,30 10,25 10,34 -4,55 -46,70 -142,20 -116,-61 7,-20 9,-38 6,-41 -3,-3 -85,4 -183,16 -98,12 -181,21 -185,21 -19,0 -5,17 22,27 71,27 78,135 11,180 -47,32 -83,29 -126,-8 -30,-26 -35,-37 -35,-74 0,-28 7,-51 21,-69 12,-15 19,-29 17,-31 -2,-2 -26,2 -53,11 -33,10 -68,12 -106,8 -65,-7 -250,11 -325,32 -29,8 -76,13 -105,13 -53,-1 -158,8 -191,17 -12,4 -15,13 -11,42 5,43 -10,68 -49,77 -40,10 -83,-34 -74,-77 5,-26 3,-29 -12,-23 -117,49 -133,51 -264,29 -28,-4 -49,0 -84,16 -64,32 -139,24 -236,-24 -50,-25 -97,-39 -148,-46 -113,-14 -110,-15 -110,23 0,40 -25,67 -63,67 -50,0 -87,-66 -55,-98 22,-22 -3,-25 -115,-12 -124,14 -193,6 -255,-30 -45,-27 -48,-25 -18,11 60,71 15,169 -79,169 -64,0 -105,-39 -105,-100 0,-35 6,-48 35,-77 20,-20 34,-37 33,-38 -2,-1 -57,-9 -123,-17 -115,-15 -122,-14 -158,4 -56,28 -124,33 -188,14 -65,-18 -153,-56 -146,-62 2,-2 29,7 60,21 31,14 83,31 117,37 51,10 69,9 116,-6 31,-10 54,-20 51,-22 -2,-3 -78,-13 -169,-24 -130,-16 -203,-19 -358,-15 -224,6 -250,8 -250,16 0,4 10,9 23,13 31,7 50,48 37,80 -19,52 -85,58 -116,11 -13,-20 -14,-30 -4,-60 7,-20 9,-39 6,-42 -5,-5 -377,36 -384,42 -2,2 13,11 33,20 37,18 65,59 65,95 0,53 -57,110 -110,110 -29,0 -76,-29 -89,-54 -21,-45 -21,-63 4,-109 13,-26 23,-47 22,-47 -1,0 -24,7 -52,15 -34,11 -68,13 -106,9 -65,-7 -250,11 -325,32 -29,8 -76,13 -105,13 -53,-1 -158,8 -191,17 -12,4 -15,13 -11,42 5,43 -10,68 -49,77 -40,10 -83,-34 -74,-77 5,-26 3,-29 -12,-23 -117,49 -133,51 -264,29 -28,-4 -49,0 -84,16 -64,32 -139,24 -236,-24 -50,-25 -97,-39 -148,-46 -113,-14 -110,-15 -110,23 0,61 -67,90 -110,47 -22,-22 -25,-51 -9,-82 11,-21 10,-21 -67,-12 -142,16 -222,11 -287,-19 l -58,-27 25,31 c 30,35 33,76 11,119 -19,37 -43,50 -95,50 -59,0 -100,-42 -100,-100 0,-35 6,-48 35,-77 20,-20 34,-37 33,-38 -2,-1 -57,-9 -123,-17 -115,-15 -122,-14 -158,4 -84,42 -177,32 -316,-34 l -64,-31 -166,7 c -211,9 -221,10 -221,17 0,4 11,10 24,13 14,3 28,17 34,33 27,78 -69,126 -115,57 -14,-22 -15,-31 -4,-61 7,-19 10,-37 7,-40 -5,-6 -377.0003,36 -384.0003,42 -2,2 12,10 30,19 37,18 68,61 68,96 0,53 -57,110 -110,110 -61,0 -116,-68 -104,-129 4,-17 13,-36 20,-42 8,-6 14,-17 14,-24 0,-10 -10,-10 -47,1 -32,10 -67,12 -104,8 -64,-7 -250,11 -324,31 -28,8 -80,14 -116,14 -35,0 -80,2 -99,5 -111,17 -113,17 -101,29 12,12 15,56 3,73 -9,13 -46,34 -62,34 -6,0 -22,-12 -37,-26 z m 3557.0003,-39 c 14,-8 23,-15 20,-16 -13,-4 -270,-34 -270,-32 0,5 84,46 110,54 41,12 113,9 140,-6 z m 3950,0 c 14,-8 23,-15 20,-16 -25,-8 -268,-33 -261,-26 4,4 35,19 67,32 66,28 136,31 174,10 z m 3949.99999,0 c 14,-8 23,-15 20,-16 -25,-8 -267.999994,-33 -260.999994,-26 4,4 35,19 66.999994,32 66,28 136,31 174,10 z m -11554.00029,-24 c 15,-9 4,-10 -51,-5 -93,9 -123,27 -34,21 37,-3 75,-10 85,-16 z m 3950.0003,0 c 15,-9 4,-10 -51,-5 -93,9 -123,27 -34,21 37,-3 75,-10 85,-16 z m 3950,0 c 15,-8 3,-10 -51,-5 -93,9 -123,27 -34,21 37,-3 75,-10 85,-16 z m -4981,-70 c 22,-5 36,-9 30,-10 -5,-1 -64,-8 -130,-16 -141,-18 -146,-18 -120,-3 54,32 146,44 220,29 z m 3955,0 c 43,-7 40,-8 -55,-19 -195,-25 -192,-24 -170,-10 51,32 139,43 225,29 z m 3949.99999,0 c 25,-5 40,-9 35,-10 -6,0 -65,-8 -130,-16 -146,-18 -157,-18 -130,-3 54,32 142,43 225,29 z m -9891.00029,-47 c 10,-9 -56,-3 -69,7 -11,7 -4,8 25,3 22,-4 42,-8 44,-10 z m 3950.0003,0 c 10,-9 -56,-3 -69,7 -11,7 -4,8 25,3 22,-4 42,-8 44,-10 z m 3950,0 c 2,-2 -10,-4 -27,-4 -17,0 -34,4 -37,10 -5,9 53,3 64,-6 z m -6585,-23 c 16,-6 26,-14 23,-17 -5,-6 -293,-43 -327,-43 -24,0 75,48 133,64 56,16 125,14 171,-4 z m 7912.0001,-4 27.9999,-15 -39.9999,-6 c -78,-12 -307.0001,-36 -311.0001,-33 -5,6 108,55 153,66 50.0001,13 134.0001,7 170.0001,-12 z m -8913.0004,-51 c 59.0003,-8 110.0003,-16 113.0003,-18 2,-3 -22,-11 -54,-18 -51.0003,-10 -67.0003,-10 -113.0003,4 -30,9 -65,23 -79,31 l -25,14 h 25 c 14,0 74,-6 133,-13 z m 3950.0003,0 c 59,-8 110,-16 113,-18 2,-3 -22,-11 -54,-18 -51,-10 -67,-10 -113,4 -30,9 -65,23 -79,31 l -25,14 h 25 c 14,0 74,-6 133,-13 z m 3955,0 c 57,-8 106,-17 109,-19 2,-3 -21,-10 -51,-17 -61,-12 -96,-8 -163,21 -77,33 -55,36 105,15 z"
       id="path2" />
    <path
       d="m 12422.006,5354 c -20,-20 -24,-32 -19,-55 3,-16 4,-29 3,-29 -1,0 -29,11 -62,25 -66,27 -139,32 -192,13 -29,-10 -47,-37 -25,-38 7,-1 281,-39 317,-44 11,-2 40,-9 64,-15 25,-7 61,-11 81,-9 l 37,3 -14,-42 c -10,-29 -28,-52 -53,-70 -56,-41 -83,-86 -88,-148 -5,-64 0,-88 30,-135 12,-19 22,-39 23,-45 0,-14 64,-54 104,-65 43,-11 104,1 140,28 36,26 92,123 98,169 9,67 -13,123 -69,175 -39,37 -51,56 -55,86 l -5,39 93,-13 c 52,-7 109,-18 127,-24 18,-7 49,-10 68,-7 27,5 33,3 26,-6 -5,-7 -13,-31 -17,-55 -6,-37 -4,-47 16,-68 26,-28 55,-31 87,-8 42,29 19,114 -31,114 -9,0 -19,5 -22,10 -8,13 7,13 160,-6 109,-13 142,-21 200,-50 92,-45 143,-51 221,-26 48,15 73,17 125,11 35,-4 114,-11 175,-15 l 111,-7 -16,-43 c -11,-29 -31,-53 -59,-73 -86,-63 -107,-171 -53,-272 16,-30 45,-67 66,-84 32,-26 45,-30 99,-30 52,0 70,5 105,28 24,16 40,31 37,34 -3,3 6,19 19,35 27,31 45,86 45,134 0,46 -46,130 -85,154 -24,15 -35,30 -40,56 -3,19 -8,41 -11,49 -4,10 9,15 48,19 142,14 347,37 385,42 l 43,6 -6,-46 c -5,-37 -3,-50 11,-66 40,-44 121,-8 113,50 -4,26 0,29 49,44 29,9 55,22 59,28 5,8 1,9 -12,3 -79,-34 -104,-38 -135,-22 l -31,14 69,8 c 37,4 84,9 103,10 19,2 141,17 270,33 129,17 269,31 310,31 41,1 86,5 99,8 20,5 23,3 18,-11 -4,-10 -7,-19 -7,-21 0,-2 -20,-18 -44,-34 -56,-39 -86,-99 -86,-170 0,-50 26,-121 50,-136 6,-4 8,-10 5,-15 -8,-13 55,-57 100,-69 47,-12 106,-1 144,27 36,26 92,123 98,169 9,66 -13,123 -68,175 -35,33 -52,57 -56,81 l -5,34 183,21 184,22 150,-20 c 196,-27 183,-25 234,-39 25,-7 62,-11 83,-9 24,2 36,0 34,-7 -3,-5 -10,-27 -17,-47 -7,-21 -16,-38 -21,-38 -17,0 -92,-76 -105,-107 -32,-78 8,-224 75,-271 63,-45 154,-47 211,-4 39,29 93,126 99,177 7,64 -20,126 -73,172 -34,30 -46,47 -51,79 l -6,41 93,-13 c 52,-7 109,-18 127,-24 18,-7 49,-10 68,-7 27,5 33,3 26,-6 -5,-7 -9,-19 -9,-27 0,-8 -4,-26 -7,-40 -16,-60 68,-106 109,-60 34,37 10,110 -36,110 -10,0 -21,5 -24,10 -8,14 18,13 165,-6 102,-13 138,-22 195,-50 92,-45 143,-51 221,-26 48,15 73,17 125,11 35,-4 114,-11 176,-15 l 112,-7 -17,-43 c -11,-28 -32,-53 -60,-74 -59,-42 -86,-103 -80,-180 2,-34 12,-69 23,-86 11,-16 19,-32 18,-36 -2,-3 15,-22 37,-42 63,-57 148,-61 221,-10 21,14 37,30 34,34 -3,4 3,14 12,21 26,22 53,90 53,135 0,55 -43,138 -84,164 -27,16 -35,29 -43,69 l -10,50 51,5 c 130,13 345,37 384,43 l 44,6 -7,-47 c -9,-58 11,-86 61,-86 39,0 69,36 62,74 -4,21 1,25 48,40 29,9 56,22 60,28 5,8 1,9 -12,3 -79,-34 -104,-38 -135,-22 l -31,14 69,8 c 37,4 84,9 103,10 19,2 141,17 270,33 129,17 269,31 310,31 41,1 85,4 97,8 30,7 30,-12 -1,-40 -14,-12 -39,-35 -57,-51 -67,-63 -78,-153 -29,-253 33,-68 64,-95 125,-112 86,-22 161,20 213,119 52,102 38,188 -43,258 -31,26 -46,48 -50,73 l -7,36 184,21 183,22 150,-20 c 83,-11 162,-22 177,-24 14,-2 43,-9 63,-16 20,-7 54,-10 76,-8 24,2 37,0 35,-7 -3,-5 -10,-27 -17,-47 -7,-21 -16,-38 -20,-38 -18,0 -81,-65 -101,-103 -27,-54 -22,-137 12,-193 14,-21 25,-43 25,-49 0,-5 21,-22 47,-38 36,-22 59,-29 97,-29 66,0 107,24 154,93 70,102 60,211 -28,286 -34,30 -46,47 -51,79 l -6,41 93,-13 c 52,-7 109,-18 127,-24 18,-7 49,-10 68,-7 25,4 32,3 27,-6 -4,-7 -9,-21 -10,-32 0,-11 -4,-29 -8,-40 -4,-14 1,-30 15,-48 37,-46 96,-31 114,29 8,26 -27,74 -54,74 -10,0 -22,5 -25,10 -8,14 17,13 168,-6 108,-14 140,-22 193,-50 87,-45 137,-51 221,-26 55,16 79,19 127,12 33,-5 110,-12 172,-16 l 112,-7 -14,-42 c -11,-29 -27,-51 -58,-72 -89,-63 -110,-168 -55,-274 45,-85 86,-114 164,-114 51,0 69,5 104,28 23,15 39,31 37,36 -3,5 3,16 14,26 78,70 56,245 -38,300 -22,13 -31,29 -38,66 l -10,48 50,5 c 129,13 345,37 384,43 l 44,6 -7,-47 c -9,-58 11,-86 61,-86 39,0 69,36 62,74 -4,21 0,26 36,35 23,5 50,17 61,26 l 20,17 -20,-8 c -11,-3 -38,-13 -59,-21 -34,-12 -44,-12 -74,0 l -36,14 70,8 c 38,4 85,9 104,10 19,2 141,17 270,33 129,17 269,31 310,31 41,1 86,5 99,8 21,5 22,3 16,-18 -4,-13 -12,-26 -18,-28 -24,-9 -91,-79 -104,-108 -37,-89 11,-231 94,-280 72,-42 165,-32 215,23 34,39 78,136 78,175 0,58 -27,115 -75,157 -31,26 -46,48 -50,73 l -7,36 149,17 c 200,24 213,26 213,42 0,8 -8,14 -17,14 -9,0 -36,10 -61,21 -62,31 -140,22 -232,-25 -52,-26 -92,-38 -152,-46 -112,-14 -108,-15 -108,23 0,40 -25,67 -63,67 -49,0 -86,-67 -55,-98 22,-22 -3,-25 -115,-12 -124,14 -193,6 -255,-30 -45,-27 -48,-25 -18,11 58,69 15,169 -74,169 -52,0 -76,-13 -95,-50 -25,-49 -19,-88 20,-127 20,-20 34,-37 33,-38 -2,-1 -57,-9 -123,-17 -115,-15 -122,-14 -158,4 -84,42 -181,32 -311,-34 l -60,-30 -171,6 c -240,10 -229,9 -208,24 9,6 20,12 24,12 3,0 12,13 19,30 10,25 10,34 -4,55 -46,70 -142,20 -116,-61 7,-20 9,-38 6,-41 -3,-3 -85,4 -183,16 -98,12 -181,21 -185,21 -19,0 -5,17 22,27 71,27 78,135 11,180 -47,32 -83,29 -126,-8 -30,-26 -35,-37 -35,-74 0,-28 7,-51 21,-69 12,-15 19,-29 17,-31 -2,-2 -26,2 -53,11 -33,10 -68,12 -106,8 -65,-7 -250,11 -325,32 -29,8 -76,13 -105,13 -53,-1 -158,8 -191,17 -12,4 -15,13 -11,42 5,43 -10,68 -49,77 -40,10 -83,-34 -74,-77 5,-26 3,-29 -12,-23 -117,49 -133,51 -264,29 -28,-4 -49,0 -84,16 -64,32 -139,24 -236,-24 -50,-25 -97,-39 -148,-46 -113,-14 -110,-15 -110,23 0,40 -25,67 -63,67 -50,0 -87,-66 -55,-98 22,-22 -3,-25 -115,-12 -124,14 -193,6 -255,-30 -45,-27 -48,-25 -18,11 60,71 15,169 -79,169 -64,0 -105,-39 -105,-100 0,-35 6,-48 35,-77 20,-20 34,-37 33,-38 -2,-1 -57,-9 -123,-17 -115,-15 -122,-14 -158,4 -56,28 -124,33 -188,14 -65,-18 -153,-56 -146,-62 2,-2 29,7 60,21 31,14 83,31 117,37 51,10 69,9 116,-6 31,-10 54,-20 51,-22 -2,-3 -78,-13 -169,-24 -130,-16 -203,-19 -358,-15 -224,6 -250,8 -250,16 0,4 10,9 23,13 31,7 50,48 37,80 -19,52 -85,58 -116,11 -13,-20 -14,-30 -4,-60 7,-20 9,-39 6,-42 -5,-5 -377,36 -384,42 -2,2 13,11 33,20 37,18 65,59 65,95 0,53 -57,110 -110,110 -29,0 -76,-29 -89,-54 -21,-45 -21,-63 4,-109 13,-26 23,-47 22,-47 -1,0 -24,7 -52,15 -34,11 -68,13 -106,9 -65,-7 -250,11 -325,32 -29,8 -76,13 -105,13 -53,-1 -158,8 -191,17 -12,4 -15,13 -11,42 5,43 -10,68 -49,77 -40,10 -83,-34 -74,-77 5,-26 3,-29 -12,-23 -117,49 -133,51 -264,29 -28,-4 -49,0 -84,16 -64,32 -139,24 -236,-24 -50,-25 -97,-39 -148,-46 -113,-14 -110,-15 -110,23 0,61 -67,90 -110,47 -22,-22 -25,-51 -9,-82 11,-21 10,-21 -67,-12 -142,16 -222,11 -287,-19 l -58,-27 25,31 c 30,35 33,76 11,119 -19,37 -43,50 -95,50 -59,0 -100,-42 -100,-100 0,-35 6,-48 35,-77 20,-20 34,-37 33,-38 -2,-1 -57,-9 -123,-17 -115,-15 -122,-14 -158,4 -84,42 -177,32 -316,-34 l -64,-31 -166,7 c -211,9 -221,10 -221,17 0,4 11,10 24,13 14,3 28,17 34,33 27,78 -69,126 -115,57 -14,-22 -15,-31 -4,-61 7,-19 10,-37 7,-40 -5,-6 -377,36 -384,42 -2,2 12,10 30,19 37,18 68,61 68,96 0,53 -57,110 -110,110 -61,0 -116,-68 -104,-129 4,-17 13,-36 20,-42 8,-6 14,-17 14,-24 0,-10 -10,-10 -47,1 -32,10 -67,12 -104,8 -64,-7 -250,11 -324,31 -28,8 -80,14 -116,14 -35,0 -80,2 -99,5 -111,17 -113,17 -101,29 12,12 15,56 3,73 -9,13 -46,34 -62,34 -6,0 -22,-12 -37,-26 z m 3557,-39 c 14,-8 23,-15 20,-16 -13,-4 -270,-34 -270,-32 0,5 84,46 110,54 41,12 113,9 140,-6 z m 3950,0 c 14,-8 23,-15 20,-16 -25,-8 -268,-33 -261,-26 4,4 35,19 67,32 66,28 136,31 174,10 z m 3950,0 c 14,-8 23,-15 20,-16 -25,-8 -268,-33 -261,-26 4,4 35,19 67,32 66,28 136,31 174,10 z m -11554,-24 c 15,-9 4,-10 -51,-5 -93,9 -123,27 -34,21 37,-3 75,-10 85,-16 z m 3950,0 c 15,-9 4,-10 -51,-5 -93,9 -123,27 -34,21 37,-3 75,-10 85,-16 z m 3950,0 c 15,-8 3,-10 -51,-5 -93,9 -123,27 -34,21 37,-3 75,-10 85,-16 z m -4981,-70 c 22,-5 36,-9 30,-10 -5,-1 -64,-8 -130,-16 -141,-18 -146,-18 -120,-3 54,32 146,44 220,29 z m 3955,0 c 43,-7 40,-8 -55,-19 -195,-25 -192,-24 -170,-10 51,32 139,43 225,29 z m 3950,0 c 25,-5 40,-9 35,-10 -6,0 -65,-8 -130,-16 -146,-18 -157,-18 -130,-3 54,32 142,43 225,29 z m -9891,-47 c 10,-9 -56,-3 -69,7 -11,7 -4,8 25,3 22,-4 42,-8 44,-10 z m 3950,0 c 10,-9 -56,-3 -69,7 -11,7 -4,8 25,3 22,-4 42,-8 44,-10 z m 3950,0 c 2,-2 -10,-4 -27,-4 -17,0 -34,4 -37,10 -5,9 53,3 64,-6 z m -6585,-23 c 16,-6 26,-14 23,-17 -5,-6 -293,-43 -327,-43 -24,0 75,48 133,64 56,16 125,14 171,-4 z m 7912,-4 28,-15 -40,-6 c -78,-12 -307,-36 -311,-33 -5,6 108,55 153,66 50,13 134,7 170,-12 z m -8913,-51 c 59,-8 110,-16 113,-18 2,-3 -22,-11 -54,-18 -51,-10 -67,-10 -113,4 -30,9 -65,23 -79,31 l -25,14 h 25 c 14,0 74,-6 133,-13 z m 3950,0 c 59,-8 110,-16 113,-18 2,-3 -22,-11 -54,-18 -51,-10 -67,-10 -113,4 -30,9 -65,23 -79,31 l -25,14 h 25 c 14,0 74,-6 133,-13 z m 3955,0 c 57,-8 106,-17 109,-19 2,-3 -21,-10 -51,-17 -61,-12 -96,-8 -163,21 -77,33 -55,36 105,15 z"
       id="path3" />
  </g>
</svg>
