<?xml version="1.0" encoding="UTF-8" standalone="no"?>
<!-- Created with Inkscape (http://www.inkscape.org/) -->

<svg
   width="1258.8583mm"
   height="871.86108mm"
   viewBox="0 0 1258.8583 871.86108"
   version="1.1"
   id="svg1"
   xml:space="preserve"
   xmlns="http://www.w3.org/2000/svg"
   xmlns:svg="http://www.w3.org/2000/svg"><defs
     id="defs1" /><g
     id="layer1"
     transform="translate(1457.1117,-11.868842)"><path
       style="opacity:0.1;fill:#ffffff;stroke:#ffffff;stroke-width:0.499999;stroke-dasharray:none;stroke-dashoffset:0"
       d="m -1394.3718,429.3685 7.9552,31.00649 29.1041,68.2625 48.1542,119.0625 36.5125,74.6125 75.6708,-24.87083 59.2667,-35.98333 -12.4998,36.78509 25.7335,38.06735 31.4857,-8.50897 12.2173,21.11748 -17.028,65.78521 50.4189,32.33134 29.0908,9.50652 24.31556,-37.18358 38.90256,-61.27092 27.08744,15.46338 37.54063,-12.03743 19.70301,-39.04196 7.97511,-79.5806 -3.08078,-109.31437 253.69225,-92.04762 80.44813,-56.87494 -4.11595,-19.45724 -16.4638,-44.90127 10.10278,-38.16608 -26.94077,-23.57318 -9.7286,-1.87089 -39.28862,-52.38483 -35.92103,-46.39799 -73.33877,-15.71544 -71.09367,24.6957 -98.03447,41.90786 -86.06078,69.59699 -49.39143,20.20557 -47.1463,30.68253 -105.518,26.94078 -120.8593,39.28861 -56.875,17.21218 z"
       id="path6" /><rect
       style="opacity:0;fill:#ffffff;stroke:#ffffff;stroke-width:0.499999;stroke-dasharray:none;stroke-dashoffset:0"
       id="rect7"
       width="1258.3583"
       height="871.36108"
       x="-1456.8617"
       y="12.118841" /></g></svg>
